/* XPM */
static char *_aa9f54401d74518ba6e9a50d50985e3mZ9zKExDSwhJ5W6l[] = {
/* columns rows colors chars-per-pixel */
"64 64 108 2 ",
"   c #5DB73B",
".  c #5DB73D",
"X  c #60B72F",
"o  c #78BE3E",
"O  c #7EC23D",
"+  c #11A047",
"@  c #11A14C",
"#  c #1BA14E",
"$  c #0BA452",
"%  c #0DA554",
"&  c #12A352",
"*  c #15A053",
"=  c #10A454",
"-  c #14A657",
";  c #19A653",
":  c #1AA355",
">  c #18A755",
",  c #1EA657",
"<  c #14A857",
"1  c #16A558",
"2  c #1AA758",
"3  c #1FA759",
"4  c #14A858",
"5  c #18A95A",
"6  c #1DA95A",
"7  c #1DAA5C",
"8  c #1DAC5E",
"9  c #35AA40",
"0  c #22A556",
"q  c #22A75B",
"w  c #20A95B",
"e  c #23A95D",
"r  c #26AA5E",
"t  c #2FAA5A",
"y  c #29AA5F",
"u  c #2CAE5D",
"i  c #39AD56",
"p  c #33AD5A",
"a  c #36AC59",
"s  c #35AB5C",
"d  c #33AC5F",
"f  c #34AD5E",
"g  c #39AD58",
"h  c #30B05F",
"j  c #3CB25F",
"k  c #27A860",
"l  c #25AF61",
"z  c #29AB60",
"x  c #2DAA60",
"c  c #2BAD62",
"v  c #2DAC63",
"b  c #2EAF64",
"n  c #31AB62",
"m  c #34AB63",
"M  c #32AC63",
"N  c #35AC62",
"B  c #33AB64",
"V  c #35AB64",
"C  c #33AD64",
"Z  c #35AC64",
"A  c #34AB6A",
"S  c #32AD68",
"D  c #39B26A",
"F  c #3EB370",
"G  c #5FBC4F",
"H  c #52A05B",
"J  c #42B055",
"K  c #45B256",
"L  c #4BB053",
"P  c #48B154",
"I  c #40B15B",
"U  c #4BB259",
"Y  c #48B858",
"T  c #5EBB52",
"R  c #66BE4C",
"E  c #45B070",
"W  c #49B874",
"Q  c #57B477",
"!  c #53B47B",
"~  c #57BB7E",
"^  c #69C342",
"/  c #69C04D",
"(  c #7EC842",
")  c #8DC326",
"_  c #82C339",
"`  c #87CE3D",
"'  c #A1CC29",
"]  c #A4D02C",
"[  c #ADD62B",
"{  c #A0D032",
"}  c #A6D433",
"|  c #A6D93B",
" . c #A4D83C",
".. c #DAE71A",
"X. c #EFED11",
"o. c #F2EE11",
"O. c #CEDE24",
"+. c #D2E320",
"@. c #83C842",
"#. c #8ACF41",
"$. c #96D040",
"%. c #D4E248",
"&. c #EFEC4B",
"*. c #70AD8A",
"=. c #79BF87",
"-. c #A8DCAE",
";. c #D6EC83",
":. c #DBF1AA",
/* pixels */
"C C C C M C C C C C Z 6 q 6 < C C C C C C C v - 7 5 $ M n M C C C C C M M M | O./ S C Z C C C C C C C C M M m j 9 P n M C C C C ",
"C M C C C C C C C C m b C M C C C M C C C C C 6 c y e M C C C C C C C M M M ' X.o M C C C C C C C C C C C C B M 0 Z N M C C C C ",
"C C C C C C M M C C M M M C C C M M M C C C C M M C C C C C C C C C C C C g #.X G C M C C C C C C C C C C C b C V N C C C C C C ",
"C C M C C M M C C C C M M M C C C M M C C C C M M C M C C C C C C C C C C C t @ N C C C C C C M M C C C C M n Z M M C C C C C C ",
"C M M M C C C C M C C C M M C C C C C C C C C C C M C C C C C C C C C C C C u ; C C C C C C C M C C C M C C C M M C C M M C C C ",
"C C C C M C C M C M C C C C C C C C C M C C C C C C C M M M M C C C M M C C M M M C C C C C C M C C C C C M C C C C M M C C M C ",
"C C M M M M C C C M M M M M M C M M M C C C M C C C C M n M M C C C C C C C C C C C C C C C M C C C C C C C M M C C M C C C M C ",
"C M n M M C C C C C M n n n n C M n M C C C M C C C M M M C C C C C C C C C M M C C C C C M n C C C M C C C M M C M C C C C n C ",
"C M C M C C C M C C C C C C C C C C C C C C C C C C n M C M M C C M M C C C C C C C C C C C C C C C C C C C M M C n C M C C C C ",
"C C C C C C C C M C C M M C C C M M M M C C C C C C C M C C C C C C C C C C C C C C C C C C C C C C C C M C C C C C C C C C C C ",
"C C C C C C C C M C C M M C C C M M M M C C C C C C C M C C C C C C C C C C C C C C C C C C C C C C C C M C C C C C C C C C C C ",
"C C C C M M C C C C C M M M C C C C M M C C C C C C C M C C C C C M M C C C C C M M M C C M C M M M C C C M M M M M C C C C C C ",
"M C C C C C C C C C C M M M M C C C C C C C C M M C C C C C C M M C C C C C C C M M C C C C C M C C C M M M C C M C C C C C M C ",
"C C C C C C C C C C C C M M M C M M M M M C C C C C C M M M C M M M M C C C C M M C C C Z Z Z Z Z Z C M M C C C C C M C C M M C ",
"C C C C C C C M M C C C C M C C M M M M M C C C C M M M M M M M C M M C C C C M M C C C C x c e M Z C C C C C C C C M M C C M C ",
"M C C C C C M M M C C C C C C C C M M C C C M M M M M C C M M M C M M M C C C C M C C M z - = 4 k M C C C C C C C C C M C C C C ",
"M M M C C M M C C C C C C C C M M M C C C C C M Z C C C C C M M C C C C C C C M C n M M c 1 - 8 2 C M C C C C C C M C C C M M C ",
"C C M C C M M M C M C C C C C C C C C C C C N C C M M N C C C C C C M C C C C C C M C C c - > c 2 C C C C M C C C M C M M C C C ",
"C C M C C C M C C M C C C C C C C C C C C N M *.=.Q F C C C C C C C C C C C C C C C C C C v M N C C C C C M C C C M C M M C C C ",
"C C C C C C C C C C C C C C C C C C C C C C n H &.;.! C C C C C C C C C C C C C C C C C C M M M C C C C C C C C C C C M M C C C ",
"C M C C C C C C C C M C C M C C C C C C C C m -.%.:.E M M C M M n M C C C C M M C C M M n M C M C C C n C C C C C M C C C C C C ",
"C M M C C M C C C C M M C C C n C C C C C Z C W # ~ D N C M M M C C C C C C C C C C M M C C C C C C C C C C C C C M C C C C M C ",
"C C M C C M M C C C M M C C C M C C C C C C C M & c M M M C M M C C C C C C C C C C M M C C C C C C C C C C C C M M C C C C M C ",
"C C C M M C C C C M M M C C C C C C M M C M C C : v b Z M M M M C M C C C C C C C M M C C C C C C M M C C C C M M C C C C C C M ",
"C C M C C C C C C C C C C C M C M M M C C C M M C C C C C C C C C C C C C C C C C C C M M C C C C C C C C C C C C C C C C C C C ",
"C C C C M C C C M C C C C C C C M M M C M C C C C C C M M C C C C C C C C C M C C C C C M M C C M M M C M C C C M C M C C C C C ",
"C C C C M C C C M C C M M C C C M M C C M C C C C C C M C C C C C M M C C C M M C C M M M M C C C M M M M C C C M C M C C C M C ",
"C C C C C C C C C C C M M C C C C C C C C C C C C C C M M C C C C M M C C C M M C C M M C C C C C C M n C C C C C C C C C M M C ",
"C C C C C C C C C C C C C C C C C C M M C C M C C M C C C C C C C C M n M M C C C C C C M C C C C C C C C M C C C C C C C M C C ",
"C C C C C C C C C C C C C C C C C C M M C C M C C C C C C C C C C C M C M M C C C C C C M C C C C C C C C M C C C C C C C M C C ",
"M M C C C C C C C M C C C C C M C M M C C M C C C C Z M C C C M C M C C C C C C C C C C C C C C C C C C C M M C C C C C C C C C ",
"M M C C C C C C C M C C C C C C C C M M C C C C C C C C C C C C C C C C C C C C C C M M M C C C C M M C M C M M C C C C C C C C ",
"M C C C M C C M C C C C C C C C C C M M M M C C C C C C C C C C C C C C C C C C M M M M M C C C C C C C C M M C C C C M C C C C ",
"C C M C C C C C C C C C C C C C C C C C M M v C C C C C C C C C C C M M C C C C M M M M C M C C C C M C C C C C C C C C C C M C ",
"C C M C C C C C C C C C C C M C C C C C C r 2 w v C M C C C C C C C M M C C C M C C C C C M C C C M M C C C C C C C C C C M M C ",
"C C C C C M M C C C C C C C n C C M M N N r 5 = z C n M C C C z r c C C C C M M C C C C C C C M C C C C C C C C C C C C C M M C ",
"C C M C M M M M C C C C C C C M C C C N n M M c M Z C M C C C w 5 - v C C C C C M C C C M M C C C C C C C C C C C C C C C M C C ",
"C C M M C C C C C C C C C C M C C C C M M M C C C C C C C C C x r e v M C C C C C M M C C C M M M C C C C M C M M C C C C C C C ",
"C C M M C C C C C C M C C C M C C C C C C C C C C C C M C C C Z C C C M C C C M C C C C C C M M M C C C C C C C C C M C C C C C ",
"C C C M C C C C C C M C C C C C C C C C C C C C C Z Z M C C C C C C M M C M M n C M C C C C C M M C C C C C C C C C M C C C C C ",
"C C C C C C C M C C C C C C C C n C C C C C C M M C C C C C C C C C C Z Z n U { ( N C C M C C C C C C C C M C C C C C C C C n C ",
"C C C Z C C C M C C C C C C C C M M C C C C C M M C V M C C C C C C C N M m L ..] N M M M C C C C C C M C M M C C C C C C C M C ",
"C C C C C C C C C C C C C C C C C M M C C C C M z 6 e M C C C C C C M M M Z Y   R M M M M C C C M M M M C M C C C C C M M C C C ",
"C C M C C C C C C C C C C C C C C M M M C C C Z l % = M C M M C C C M M M N M , v M M M M C C C C M M M M C C C C M C M M M M C ",
"C C C M C M M M C C C C C C C C C M M M C C C M v w r C C C C C M C C C C C C v C M M C C M C C C C C C C C C C C C C M M M C C ",
"C C M C C C C M M C C C M M C C C C C C C C C C C C M Z C C M M M C M M M M M C M M C C C M C C C C C C C C M M C C C M M C M C ",
"C M M C C C C C M C C C M M C C M C C M C C C Z C C M C C C M M M C M M M M M C M C C C M M C C C C C C C C C C C C C C C C M C ",
"C M M C C C C C C n M C C C C C M C M M C M C C C C M C C C C C M C C C C M M C M C C M M C M C C C C C C C C C C n C M M M M C ",
"C C C C C C C C n C M M C C C C C C M M C M C C C C C C C C C C C C C C C C C C C C C M C S d C C C C C n C C C C C C C M M C C ",
"C C C C C M M C C C M M M C C C C C C M C C C M C C C C C C C C C C M M C C C C C M B N a C M M M M C C C C M M C C C C M M C C ",
"C C C M C C C C C M M M C C M C C C C C C C C C C M C C M M C C C M C M M M C M C C M I } ` V Z C C C C C C C C C C C C C C C C ",
"C C M M C C M M C M C C C C C C M M M M M C M M C Z i f A N Z C C C C C C C C C M M V J +.[ M C C C C C M C C C C C C C C C C C ",
"C C C C C C C C C M M C C C C C C C C C C C M C C M $.] ^ C C M C C C M M M M C C C C K . T M Z C C C C C C C C C M C C C C C C ",
"C C C C C C C C C M M M M C C C C C C C C C C C C f _ o.O M C C C C C C M M M C C M M N 3 u C C C C C C C C C C C M C C C C C C ",
"C C M C C C C C C M C M M C C C C C C C C M C C M f  .) @.Z V Z C C C C C M M C C M M N M n C C C C C C C C C C C C C C C C C C ",
"C M M C C C C C C M C C C C C C C C C C C n C Z C s p + h C C C C C C C C C C C C C M M C Z C C C C M C C C C C C C C C C C C C ",
"M C C M C M M C C M C M M C C C C C C C C C C Z C C b * C C M M C C M M Z C C M C C C M M C C C M M C C C M M C C C C C C C C C ",
"C C C M C C C C C C C C C C C C C C C C C C C C C M C M C C M M C C C C C C C M C C C M M C C C C C C C C M M M M C C C C C C C ",
"C C C C C C C C C C C C C C C C C C C C C C C C C C C C M M M M C C C C C C C C C C C M M C C C C C C C C M M M M C C C C C C C ",
"M M M C C C C C M C C C C C C C M C C M C C C C C C M C M C C C C C C C C C C C M M C C M C M C C C C M C C M M M C C M C C C C ",
"C C M C M C C C M C C M n M C C C M M M C C M C C C M M C C C C C M M C M M M M M M M C C C C C C C C M C C C M C C C C C C M M ",
"C Z C C M M C C C M C M M M M C C M M M M C M C C C C M M C C C C M M C M M C M C C M M C M M C C C C C M C C C C C C C C C M M ",
"C C C C M C C M C M C C C C M C C M M M M C C C C C C C C C C C C C C C C C C C C C C C C C M C M M C C M C C C M C C C C C C M ",
"C C C C C C C C C M C M M C C M C C M M C C C M M C C C C C M M C C C C C C C M C C C C C C C C C C C M C C C C C C C C C M M C "
};
