/* XPM */
static char *_e783a35a64f4c1395eac702b404b09e0sFaA6ZwBpWEkXR8[] = {
/* columns rows colors chars-per-pixel */
"64 64 196 2 ",
"   c #0A0C0D",
".  c #0F1112",
"X  c #1C1D1F",
"o  c #1D1F20",
"O  c #262829",
"+  c #2A2C2D",
"@  c #2E3030",
"#  c #323334",
"$  c #38393A",
"%  c #403C3F",
"&  c #453E43",
"*  c #3E4040",
"=  c #404242",
"-  c #4E4F50",
";  c #5A4F56",
":  c #545556",
">  c #595156",
",  c #6E6D6F",
"<  c #F53D2D",
"1  c #F43F30",
"2  c #E84836",
"3  c #F44335",
"4  c #F44B3C",
"5  c #F54D40",
"6  c #E75A48",
"7  c #F55346",
"8  c #F5564A",
"9  c #F5594E",
"0  c #F65C51",
"q  c #CE6C52",
"w  c #F7655B",
"e  c #F76D64",
"r  c #F56568",
"t  c #F7746C",
"y  c #EB7C72",
"u  c #F67473",
"i  c #F87E76",
"p  c #F67B7B",
"a  c #60B72F",
"s  c #78BE3E",
"d  c #11A14C",
"f  c #0BA452",
"g  c #16A756",
"h  c #1CA95A",
"j  c #37AC4C",
"k  c #22A659",
"l  c #25AA5E",
"z  c #2DAB5D",
"x  c #3CB25F",
"c  c #2DAD63",
"v  c #33AD64",
"b  c #3AAE67",
"n  c #31AC68",
"m  c #3BAF69",
"M  c #3CB16B",
"N  c #5FBC4F",
"B  c #52A05B",
"V  c #48B154",
"C  c #44AE6F",
"Z  c #41B26E",
"A  c #48AE71",
"S  c #53AF78",
"D  c #46B372",
"F  c #4BB475",
"G  c #4FB678",
"H  c #50B177",
"J  c #55B47B",
"K  c #5BB37E",
"L  c #54B97C",
"P  c #77AD7A",
"I  c #6AB37D",
"U  c #69C04D",
"Y  c #A4D332",
"T  c #EFED11",
"R  c #CEDE24",
"E  c #9D865E",
"W  c #809F70",
"Q  c #BC987B",
"!  c #F4847B",
"~  c #F7887F",
"^  c #8ACF41",
"/  c #F565A5",
"(  c #F56DAA",
")  c #F573AE",
"_  c #F57BB3",
"`  c #5DB681",
"'  c #5BBC82",
"]  c #6CAD85",
"[  c #72AE8C",
"{  c #6AB985",
"}  c #6DBA8B",
"|  c #71B789",
" . c #7CBA94",
".. c #64C189",
"X. c #6CC28D",
"o. c #6CC490",
"O. c #79C898",
"+. c #7ECDA0",
"@. c #87AE97",
"#. c #8EB99E",
"$. c #97BC95",
"%. c #B7B396",
"&. c #A39EA2",
"*. c #9CB5A4",
"=. c #A0B3A6",
"-. c #A1BAA9",
";. c #BEB2B6",
":. c #BAB9B7",
">. c #F88283",
",. c #F88980",
"<. c #FA958D",
"1. c #F68B93",
"2. c #F7979F",
"3. c #CFA893",
"4. c #DAAF9D",
"5. c #D384B0",
"6. c #DC96BC",
"7. c #F490A5",
"8. c #F683B8",
"9. c #F49BB9",
"0. c #C9ADBA",
"q. c #C5B9BE",
"w. c #F9ADA6",
"e. c #FAAEA8",
"r. c #FBBEBA",
"t. c #83C69C",
"y. c #88CFA6",
"u. c #96C3A6",
"i. c #98CCAC",
"p. c #8BD1A7",
"a. c #9BD6B2",
"s. c #A7C7AC",
"d. c #A5CBB4",
"f. c #B3CEBC",
"g. c #A2D3B6",
"h. c #A8D8BB",
"j. c #B1D5BF",
"k. c #B2E0B7",
"l. c #D4CCBB",
"z. c #F69BC3",
"x. c #CFBAC4",
"c. c #D6BAC9",
"v. c #E5A8C9",
"b. c #EDACCF",
"n. c #F4A2C4",
"m. c #F5A5CA",
"M. c #F7A8CD",
"N. c #E5B2CD",
"B. c #F4ADD3",
"V. c #EBB5D1",
"C. c #E5BDD2",
"Z. c #EFBAD6",
"A. c #F5B3D6",
"S. c #F9B1D4",
"D. c #F8B9D7",
"F. c #F6B6D8",
"G. c #F9B7D8",
"H. c #F6BBDB",
"J. c #F9BBD9",
"K. c #B4D3C0",
"L. c #B5DBC3",
"P. c #BAE3CB",
"I. c #C7C7C6",
"U. c #C2CDC5",
"Y. c #DFC0CF",
"T. c #C4D3C9",
"R. c #C4DBCD",
"E. c #DDC7D1",
"W. c #DCD8DA",
"Q. c #E3C4D4",
"!. c #EAC7D8",
"~. c #EECCDD",
"^. c #F7C2DE",
"/. c #F8C3DE",
"(. c #F0CCDF",
"). c #E1D8DC",
"_. c #C2E2CE",
"`. c #C6E7D3",
"'. c #C8E3D1",
"]. c #DCE5DB",
"[. c #FAF4C7",
"{. c #F7C6E0",
"}. c #F8C7E1",
"|. c #F7CBE2",
" X c #F9CEE4",
".X c #EBD8E2",
"XX c #F9D1E6",
"oX c #F9D5E8",
"OX c #F5DAE9",
"+X c #FADCEC",
"@X c #E7E1E4",
"#X c #FAE3EF",
"$X c #F1E9ED",
"%X c #FCE3F0",
"&X c #FAEDF4",
"*X c #FCF5F9",
/* pixels */
"v v v v v v v v v v v h k h g v v v v v v v c g h h f v v v v v v v v v v v Y R U n v v v v v v v v v v v v v x j V v v v v v v ",
"v v v v v v v v v v v c v v v v v v v v v v v h c l l v v v v v v v v v v v Y T s v v v v v v v v v v v v v v v k v v v v v v v ",
"v v v v v v v v v v v v v v v v v v v v v v v v v v v v v v v v v v v v v x ^ a N v v v v v v v v v v v v v c v v v v v v v v v ",
"v v v v v v v v v v v v v v v v v v v v v v v v v v v v v v v v v v v v v v z d v v v v v v v v v v v v v v v v v v v v v v v v ",
"v v v v v v v v v v v v v v v v v v v v v v v v v v v v v v v v v v v v v v z g v v v v v v v v v v v v v v v v v v v v v v v v ",
"v v v v v v v v v v v v v v v v v v v v v v v v v v v v v v v v v v v v v v v v v v v v v v v v v v v v v v v v v v v v v v v v ",
"v v v v v v v v v v v v v v v v v v v v v v v v v v v v v v v v v v v v v v v v v v v v v v v v v v v v v v v v v v v v v v v v ",
"v v v v v v v v v v v v v v v v v v v v v v v v v v v v v v v v v v v v v v v v v v v v v v v v v v v v v v v v v v v v v v v v ",
"v v v v v v v v v v v v v v v v v v v v v v v v v v v v v v v v v v v v v v v v v v v v v v v v v v v v v v v v v v v v v v v v ",
"v v v v v v v v v v v v v v v v v v v v v v v v v v v v v g.;.;.;.#.v v v v v v v v v v v v v v v v v v v v v v v v v v v v v v ",
"v v v v v v v v v v v v v v v v v v v v v v v v v v v v v .XA. X XF.{ v v v v v v v v v v v v v v v v v v v v v v v v v v v v v ",
"v v v v v v v v v v v v v v v v v v v v v v v v v v v v D +XF. X X}.] v v v v v v v v v v v M m v v v v v v v v v v v v v v v v ",
"v v v v v v v v v v v v v v v v v v v v v v X.j.q.N.-.v ..#XA. X X X] v v v v v v v v L t.). X(.i.M v v v v v v v v v v v v v v ",
"v v v v v v v v v v v v v v v v v v v v v v g.F./.}.H.*.m L.F.}. X X0.R.U.I.q.:.;.q.Z.H.H.B.H.H.A.C.t.v v v v v v v v v v v v v ",
"v v v v v v v v v v v v v v v v v v v v v v h.F.|. X|.F.} F oXH.{.^.B.F.H.H.H.H.|.|. X|.A.H. X X}.H.A.d.v v v v v v v v v v v v ",
"v v v v v v v v v v v v v v v v v v v v v v L.F.}. X X X@.v T.B.B.F.^. X XH.A.A.B.}. X|.A.}. X X X|.^.0.v v v v v v v v v v v v ",
"v v v v v v v v v v v v v v v v v v v v v v P. X^. X X XV.V.A.^.}.{.|. X{.A.q.@XoXF.|.|.A.{./.V./.6.Z.A.u.v v v v v v v v v v v ",
"v v v v v v v v v v v v v v v v v v v v v v b h.H.}.|.H.B.H. X}.F.^.B.^.^.v.# , &XA.|. XA.H.v.5.H.6.V./.-.v v v v v v v v v v v ",
"v v v v v v v v v v v v v v v v v v v v v v v [ ].H.H.F.}. X XH.Q.I.&XA.}.b.c.~.A./. X X^.A./.Z.|.|.|.}.=.v v v v v v v v v v v ",
"v v v v v v v v v v v v v v v v v v v v v v v B [.H.A.}. X X}.A., $ *XH.}.}.F.A.^.|.|. X}.A.^. X X X XH.-.v v v v v v v v v v v ",
"v v v v v v v v v v v v v v v v v v v v v v v k.|.H.|. X X X|.F.x.&.#XF.|. X X X X X X X X^.B.^.}.}.^.A.d.v v v v v v v v v v v ",
"v v v v v v v v v v v v v v v v v v v v v v v g.F.}. X X X X X^.A.H.A./. X X X X X X X X X X^.B.B.B.B.E.' v v v v v v v v v v v ",
"v v v v v v v v v v v v v v v v v v v v v v M V.}. X X X X X X X X}. X X X X X X X X X X X X X|.^.B.:.M v v v v v v v v v v v v ",
"v v v v v v v v v v v v v v v v v v v v v v u.F. X X X X X X X X X X X X X X X X X X X X X X|.F.b. .v v v v v v v v v v v v v v ",
"v v v v v v v v v v v v v v v v v v v v v Z !./. X}.G.G.J.}. X X X X X X X X XXX X X X X}.H.B.x.G v v v v v v v v v v v v v v v ",
"v v v v v v v v v v v v v v v v v v v v v p.F.}.}.S.S.S.S.S.}. X X X XXX X X X X X X}.B.B.H.s.m v v v v v v v v v v v v v v v v ",
"v v v v v v v v v v v v v v v v v v v v v a.F. X^.S.S.S.S.S.G.|. X X X X X X X X X X{.H.V.X.v v v v v v v v v v v v v v v v v v ",
"v v v v v v v v v v v v v v v v v v v v v i.H.|.J.S.S.S.S.S.S.}. X X X XXX X X X X X X}.x.v v v v v v v v v v v v v v v v v v v ",
"v v v v v v v v v v v v v v v v v v v v v i.H. X}.S.S.S.S.S.S.}. X X X X X X X XXX/.}. Xc.v v v v v v v v v v v v v v v v v v v ",
"v v v v v v v v v v v v v v v v v v v v v i.H.|.|.G.S.S.S.S.G. X X X X X X X X X X8.m. XY.v v v v v v v v v v v v v v v v v v v ",
"v v v v v v v v v v v v v v v v v v v v v a.A.}. X}.J.S.S.G.|. XF.^. X X X X X X|.( F. X!.v v v v v v v v v v v v v v v v v v v ",
"v v v v v v v v v v v v v v v v v v v v v a.A.}. X X X}.}. X X XM.( /. X X X X}.z.8.}. X!.v v v v v v v v v v v v v v v v v v v ",
"v v v v v v v v v v v v v v v v v v v v v a.^.H. X X X X X X X X}.( / z.D.D.G._ ) }. X XA.v v v v v v v v v v v v v v v v v v v ",
"v v v v v v v v v v v v v v v v v v v v v ' OXA.}. X X X X X X X X}.m.) / / _ m.|. X X}.A.m v v v v v v v v v v v v v v v v v v ",
"v v v v v v v v v v v v v v v v v v v v v l y.F.H. X X X X X X XXXXXXX X|. X X X X X XH.C.D v v v v v v v v v v v v v v v v v v ",
"v v v v v v v v v v v v v v v v v v v v v l h g.B.^. X X X X X XXXXXXXXX X X X X X X^.N.L v v v v v v v v v v v v v v v v v v v ",
"v v v v v v v v v v v v v v v v v v v v v v v +.oXB.H. X X X X XXX X X X X X X X XH.b.L v v v v v v v v v v v v v v v v v v v v ",
"v v v v v v v v v v v v v v v v v v v v v v v o.<.r m.F.}. X X X X X X X X X X^.A.9.r W v v v v v v v v v v v v v v v v v v v v ",
"v v v v v v v v v v v v v v v v v v v v v v a.l.4 w p 7.m.A.^.^.{.}.}.^.^.H.B.n.7.t w 4 I v v v v v v v v v v v v v v v v v v v ",
"v v v v v v v v v v v v v v v v v v v v v v _.w 8 e e e p 1.9.n.m.m.m.n.z.9.p u e e e 8 6 ' v v v v v v v v v v v v v v v v v v ",
"v v v v v v v v v v v v v v v v v v v L.T.U.Q.1.w e e e e e e e u p u e e e e e e e e w 3 2.W.d.} v v v v v v v v v v v v v v v ",
"v v v v v v v v v v v v v a.U.T.R.R.T.XXoX+Xi 5 e e e e e e e e e e e e e e e e e e e e 5 w +XoXXX.XL.g.f.J v v v v v v v v v v ",
"v v v v v v v v v v v v v `.*X+XXXXXoX$Xy.h.4 w e e e e e e e e e e e e e e e e e e e e w 3 ].g.j.oXXXXX+XD v v v v v v v v v v ",
"v v v v v v v v v v v v v `.%XXX X&XP...v 3.4 e e e e e e e e e e e e e e e e e e e e e e 4 Q v v p.$X X~.v v v v v v v v v v v ",
"v v v v v v v v v v v v v `.+XW.u.F v v Z t 7 e e e e e e e e e e e e e e e e e e e e e e 7 q v v v t.OXK.v v v v v v v v v v v ",
"v v v v v v v v v v v v v L M v v v v v ' 7 0 e e e e e e e e e e e e e e e e e e e e e e 0 4 m v v M v v v v v v v v v v v v v ",
"v v v v v v v v v v v v v v v v v v v v O.3 w e e e e e e e e e e e e e e e e e e e e e e w < L v v v v v v v v v v v v v v v v ",
"v v v v v v v v v v v v v v v v v v v v s.1 e e e e e e e e e e e e e e e e e e e e e e e e 1 P v v v v v v v v v v v v v v v v ",
"v v v v v v v v v v v v v v v v v v v m i 5 e e e e e e e e e e e e e e e e e e e e e e e e 7 E v v v v v v v v v v v v v v v v ",
"v v v v v v v v v v v v v v v v v v v J 9 9 e e e e e e e e e e e e e e e e e e e e e e e e 9 q v v v v v v v v v v v v v v v v ",
"v v v v v v v v v v v v v v v v v v v | 3 0 e e e e e e e e e e e e e e e e e e e e e e e e 0 2 v v v v v v v v v v v v v v v v ",
"v v v v v v v v v v v v v v v v v v v t.1 w e e e e e e e e e e e e e e e e e e e e e e e e w < F v v v v v v v v v v v v v v v ",
"v v v v v v v v v v v v v v v v v v v $.< w e e e e e e e e e e e e e e e e e e e e e e e e e < { v v v v v v v v v v v v v v v ",
"v v v v v v v v v v v v v v v v v v v $.< w e e e e e e e e e e e e e e e e e e e e e e e e e < { v v v v v v v v v v v v v v v ",
"v v v v v v v v v v v v v v v v v v v $.< 7 7 7 8 7 7 8 8 8 8 8 8 8 9 0 0 0 0 9 9 9 8 9 8 8 7 < I v v v v v v v v v v v v v v v ",
"v v v v v v v v v v v v v v v v v v v X.%.4.w.e.e.w.>.>.<.,.,.,.~ y y ! ~ ~ p p ~ ~ ,.,.<.<.e.r.X.v v v v v v v v v v v v v v v ",
"v v v v v v v v v v v v v v v v v v v v v v v L O.'.XXoXv M M Z D F G L ' t.+Xu.X.X.X.X.X.X.X.X.D v v v v v v v v v v v v v v v ",
"v v v v v v v v v v v v v v v v v v v v v v v v v a.oX+Xv v v v v v v v v ..%X} v v v v v v v v v v v v v v v v v v v v v v v v ",
"v v v v v v v v v v v v v v v v v v v v v v v v v g.XXOXv v v v v v v v v ' OX} v v v v v v v v v v v v v v v v v v v v v v v v ",
"v v v v v v v v v v v v v v v v v v v v v v v v v #.~.c.v v v v v v v v v J Q. .A C m m v v v v v v v v v v v v v v v v v v v v ",
"v v v v v v v v v v v v v v v v v v v v v v v v v @.; % + X .   + b v v v S > & @ o .   + v v v v v v v v v v v v v v v v v v v ",
"v v v v v v v v v v v v v v v v v v v v v v v v v @.: * # + O + : C v v v S : = # # O + - v v v v v v v v v v v v v v v v v v v ",
"v v v v v v v v v v v v v v v v v v v v v v v v v L ` ` K K K K K m v v v m H F D Z m m v v v v v v v v v v v v v v v v v v v v ",
"v v v v v v v v v v v v v v v v v v v v v v v v v v v v v v v v v v v v v v v v v v v v v v v v v v v v v v v v v v v v v v v v "
};
