/* XPM */
static char *b7b3c560600940fe98634ca1164cfeebQvUXho8y8j6Tx4B5[] = {
/* columns rows colors chars-per-pixel */
"64 64 222 2 ",
"   c #000000",
".  c #170706",
"X  c #06150C",
"o  c #18130B",
"O  c #20140B",
"+  c #201B0D",
"@  c #201D14",
"#  c #0C2B18",
"$  c #1C2917",
"%  c #282719",
"&  c #3E381C",
"*  c #113B22",
"=  c #243922",
"-  c #3B3822",
";  c #402A14",
":  c #403312",
">  c #40351B",
",  c #5F3F1E",
"<  c #6E201D",
"1  c #402B22",
"2  c #423622",
"3  c #403A25",
"4  c #403E2D",
"5  c #134025",
"6  c #184C2C",
"7  c #1C502F",
"8  c #185631",
"9  c #1B5C35",
"0  c #294829",
"q  c #305433",
"w  c #1C6138",
"e  c #1F6B3D",
"r  c #21683B",
"t  c #4A5E14",
"y  c #40611C",
"u  c #5C4C28",
"i  c #4C512F",
"p  c #5C5B38",
"a  c #734C24",
"s  c #7B5428",
"d  c #695838",
"f  c #466339",
"g  c #7F6A37",
"h  c #237543",
"j  c #5F5C44",
"k  c #596844",
"l  c #746A45",
"z  c #7D7C55",
"x  c #A42E28",
"c  c #AC3029",
"v  c #B4332B",
"b  c #BC362D",
"n  c #B93A2E",
"m  c #AF3E32",
"M  c #C0362F",
"N  c #C3382F",
"B  c #C13730",
"V  c #C63A30",
"C  c #CC3C33",
"Z  c #D63E37",
"A  c #D83E37",
"S  c #DB3F39",
"D  c #8F5236",
"F  c #BD462F",
"G  c #936C34",
"H  c #C2482F",
"J  c #CB4834",
"K  c #D9493B",
"L  c #C85836",
"P  c #D7573D",
"I  c #E14636",
"U  c #E15C3D",
"Y  c #D8693E",
"T  c #D7763E",
"R  c #E7743E",
"E  c #83774B",
"W  c #89734A",
"Q  c #CF5A45",
"!  c #E45D46",
"~  c #F2574A",
"^  c #FE4F50",
"/  c #DD754B",
"(  c #D87D59",
")  c #E3654A",
"_  c #FB6C4E",
"`  c #EC794C",
"'  c #FE6952",
"]  c #FE7955",
"[  c #5DB73C",
"{  c #6CBB37",
"}  c #7EC23D",
"|  c #12904C",
" . c #26824B",
".. c #228B4F",
"X. c #2C9656",
"o. c #2B9C58",
"O. c #11A14A",
"+. c #0BA452",
"@. c #18A657",
"#. c #1CA95B",
"$. c #35AA40",
"%. c #24A65B",
"&. c #2DAB5D",
"*. c #32A75D",
"=. c #34AC5C",
"-. c #36B15F",
";. c #27A860",
":. c #2DAD63",
">. c #32AB66",
",. c #33AD64",
"<. c #46B257",
"1. c #5FBC51",
"2. c #66BE4C",
"3. c #69C147",
"4. c #7EC842",
"5. c #9F8734",
"6. c #A0812D",
"7. c #D98039",
"8. c #E4943D",
"9. c #8AC932",
"0. c #A7D12B",
"q. c #A4D537",
"w. c #DAE71A",
"e. c #F1EE11",
"r. c #CEDE24",
"t. c #D2E320",
"y. c #9B8746",
"u. c #9F974C",
"i. c #AA8A50",
"p. c #BB9C57",
"a. c #B0905B",
"s. c #B7A05C",
"d. c #9F9663",
"f. c #97916A",
"g. c #A39364",
"h. c #BE9869",
"j. c #BFAC76",
"k. c #D78349",
"l. c #D4994B",
"z. c #E59844",
"x. c #FC9A4D",
"c. c #EC8D53",
"v. c #FC8254",
"b. c #FE8A55",
"n. c #FB8A58",
"m. c #FE985A",
"M. c #DFA357",
"N. c #CFBB5E",
"B. c #F6A149",
"V. c #FEA94F",
"C. c #E1B64F",
"Z. c #FDB54A",
"A. c #FEBD4A",
"S. c #E7A357",
"D. c #FEAE54",
"F. c #FEBE53",
"G. c #FDB35B",
"H. c #FEBB5A",
"J. c #EB8766",
"K. c #FE8461",
"L. c #EA9767",
"P. c #F59A6B",
"I. c #C9A865",
"U. c #CFB66C",
"Y. c #CCB573",
"T. c #E8A768",
"R. c #FBA76B",
"E. c #E4B068",
"W. c #E1BD6E",
"Q. c #FABB64",
"!. c #F6AA79",
"~. c #EDBC7A",
"^. c #F7B477",
"/. c #87CC42",
"(. c #FECD47",
"). c #FEC449",
"_. c #FECE4B",
"`. c #FED54F",
"'. c #FCC858",
"]. c #FED252",
"[. c #FED35D",
"{. c #FEDD5B",
"}. c #FEE35F",
"|. c #D9C563",
" X c #EFCD6E",
".X c #FEC364",
"XX c #FBC66B",
"oX c #ECD66B",
"OX c #FED564",
"+X c #FED46C",
"@X c #FADA6B",
"#X c #EBC774",
"$X c #FDC87A",
"%X c #F8D676",
"&X c #FDDA74",
"*X c #FEDB7B",
"=X c #FEE967",
"-X c #FEF06D",
";X c #F9E778",
":X c #FEF27B",
">X c #BFB988",
",X c #FEAD84",
"<X c #FEAC88",
"1X c #FCB787",
"2X c #DBCE88",
"3X c #F7C885",
"4X c #FCCA8C",
"5X c #FCDA88",
"6X c #F4D293",
"7X c #FED492",
"8X c #FDDB92",
"9X c #FBE783",
"0X c #FEE28A",
"qX c #FDF487",
"wX c #FCE293",
"eX c #FCEB94",
"rX c #FEE69D",
"tX c #FEEC99",
"yX c #FCF493",
"uX c #FEF79D",
"iX c #FEF2AD",
"pX c #FEF6B5",
/* pixels */
",.,.,.,.,.,.,.,.,.,.,.#.%.#.@.,.,.,.,.,.,.,.:.@.#.#.+.,.,.,.,.,.,.,.,.,.,.,.q.r.3.>.,.,.,.,.,.,.,.,.,.,.,.,.,.-.$.<.,.,.,.,.,.,.",
",.,.,.,.,.,.,.,.,.,.,.:.,.,.,.,.,.,.,.,.,.,.,.#.:.&.%.,.,.,.,.,.,.,.,.,.,.,.0.e.{ ,.,.,.,.,.,.,.,.,.,.,.,.,.,.,.%.,.,.,.,.,.,.,.",
",.,.,.,.,.,.,.,.,.,.,.,.,.,.,.,.,.,.,.,.,.,.,.,.,.,.,.,.,.,.,.,.,.,.,.,.,.=./.[ 1.,.,.,.,.,.,.,.,.,.,.,.,.,.:.,.,.,.,.,.,.,.,.,.",
",.,.,.,.,.,.,.,.,.,.,.,.,.,.,.,.,.,.,.,.,.,.,.,.,.,.,.,.,.,.,.,.,.,.,.,.,.,.&.O.,.,.,.,.,.,.,.,.,.,.,.,.,.,.,.,.,.,.,.,.,.,.,.,.",
",.,.,.,.,.,.,.,.,.,.,.,.,.,.,.,.,.,.,.,.,.,.,.,.,.,.,.,.,.,.,.,.,.,.,.,.,.,.&.@.,.,.,.,.,.,.,.,.,.,.,.,.,.,.,.,.,.,.,.,.,.,.,.,.",
",.,.,.,.,.,.,.,.,.,.,.,.,.,.,.,.,.,.,.,.,.,.,.,.,.,.,.,.,.,.,.,.,.,.,.,.,.,.,.,.,.,.,.,.,.,.,.,.,.,.,.,.,.,.,.,.,.,.,.,.,.,.,.,.",
",.,.,.,.,.,.,.,.,.,.,.,.,.,.,.,.,.,.,.,.,.,.,.,.,.,.,.,.,.,.,.,.,.,.,.,.,.,.,.,.,.,.,.,.,.,.,.,.,.,.,.,.,.,.,.,.,.,.,.,.,.,.,.,.",
",.,.,.,.,.,.,.,.,.,.,.,.,.,.,.,.,.,.,.,.,.,.,.,.,.,.,.,.,.,.,.,.,.,.,.,.,.,.,.,.,.,.,.,.,.,.,.,.,.,.,.,.,.,.,.,.,.,.,.,.,.,.,.,.",
",.,.,.,.,.,.,.,.,.,.,.,.,.,.,.,.,.,.,.,.,.,.,.,.,.,.,.,.,.,.,.,.,.,.,.,.,.,.,.,.,.,.,.,.,.,.,.,.,.,.,.,.,.,.,.,.,.,.,.,.,.,.,.,.",
",.,.,.,.,.,.,.,.,.,.,.,.,.,.,.,.,.,.,.,.,.,.,.,.,.,.,.,.,.,.,.,.,.,.,.,.,.,.,.,.,.,.,.,.,.,.,.,.,.,.,.,.,.,.,.,.,.,.,.,.,.,.,.,.",
",.,.,.,.,.,.,.,.,.,.,.,.,.,.,.,.,.,.,.,.,.,.,.,.,.,.,.,.,.#         # ,.,.,.,.,.,.,.,.,.,.,.,.,.,.,.,.,.,.,.,.,.,.,.,.,.,.,.,.,.",
",.,.,.,.,.,.,.,.,.,.,.,.,.,.,.,.,.,.,.,.,.,.,.,.,.,.,.o.5 z i.6.g.g.z 5 5 h ,.,.,.,.,.,.,.,.,.,.,.,.,.,.,.,.,.,.,.,.,.,.,.,.,.,.",
",.,.,.,.,.,.,.,.,.,.,.,.,.,.,.,.,.,.,.,.,.,.,.,.,.,.X.h & U.*X[.rXwXU.: 3 q  .,.,.,.,.,.,.,.,.,.,.,.,.,.,.,.,.,.,.,.,.,.,.,.,.,.",
",.,.,.,.,.,.,.,.,.,.,.,.,.,.,.,.,.,.,.,.,.,.,.,.,.,.8 + -X].OXrXrX+X_.(.wXE X ,.,.,.,.,.,.,.,.,.,.,.,.,.,.,.,.,.,.,.,.,.,.,.,.,.",
",.,.,.,.,.,.,.,.,.,.,.,.,.,.,.,.,.,.,.,.,.,.,.,.,.,.8 O m.' b.].].*XwXwXrX6XY.X X 6 ,.,.,.:.:.%.,.,.,.,.,.,.,.,.,.,.,.,.,.,.,.,.",
",.,.,.,.,.,.,.,.,.,.,.,.,.,.,.,.,.,.,.,.,.,.,.,.,.w f G m.' ] x.b.Q.&X&XrX0X XE E k 8 8 ..@.+.@.;.,.,.,.,.,.,.,.,.,.,.,.,.,.,.,.",
",.,.,.,.,.,.,.,.,.,.,.,.,.,.,.,.,.,.,.,.,.,.,.&.X.$ W @XR.v.] ] ' V.).A.5X+X].rXrXg.+ @ w | | #.#.,.,.,.,.,.,.,.,.,.,.,.,.,.,.,.",
",.,.,.,.,.,.,.,.,.,.,.,.,.,.,.,.,.,.,.,.,.,.,. .  N.@X&X4X4X8XuX-XG.] ^ A.(.].rXrX*X(.rXd     X.#.,.,.,.,.,.,.,.,.,.,.,.,.,.,.,.",
",.,.,.,.,.,.,.,.,.,.,.,.,.,.,.,.,.,.,.,.,.,.9 i h.3XL.) ) ) J.7XyX0X$X] v.] ] [.[.].(.rX2Xj.j.= e ,.,.,.,.,.,.,.,.,.,.,.,.,.,.,.",
",.,.,.,.,.,.,.,.,.,.,.,.,.,.,.,.,.,.,.,.,.,.5 - 1X!.` A V Z ) T.rXrX5X^.R.K.' V.).(.(.rX0X*X*Xl f e e o.,.,.,.,.,.,.,.,.,.,.,.,.",
",.,.,.,.,.,.,.,.,.,.,.,.,.,.,.,.,.,.,.,.,.,.5 1 <X/ P Z x C P / 4X4X7XuXuX$Xb.' Z.(.(.rXOX(.(.wXE      .,.,.,.,.,.,.,.,.,.,.,.,.",
",.,.,.,.,.,.,.,.,.,.,.,.,.,.,.,.,.,.,.,.,.  y.Q.S S B c S C V V S ^.uXuXuXuXeXb.] ' ^ (.(.[.rXrXrXwX_.: 5 ,.,.,.,.,.,.,.,.,.,.,.",
",.,.,.,.,.,.,.,.,.,.,.,.,.,.,.,.,.,.,. .5 y.U.T.C A V b C V B b B T.;X9XuXtX4X! J K ~ z.c.m.OXrX5XOX(.s.l 5 ,.,.,.,.,.,.,.,.,.,.",
",.,.,.,.,.,.,.,.,.,.,.,.,.,.,.,.,.,.,.e    X3X!.Q C V V N N b v Q M.XX%XeX4XP.K b M Z Y ~ _ V.5X&X[.[.0Xg.  ,.,.,.,.,.,.,.,.,.,.",
",.,.,.,.,.,.,.,.,.,.,.,.,.,.,.,.,.,.,.e   4X1X<X<Xm v N v v v v 4XP.K.<X4XJ.K T K Z V S ~ ' ^ A.&XrXrXrXd.  ,.,.,.,.,.,.,.,.,.,.",
",.,.,.,.,.,.,.,.,.,.,.,.,.,.,.,.,.,.* p 2XuXtX5Xm.n.Q v v N ( wX4X1X,X4XtXL.A J C V V b ) v.' )._.].].u 0 X.,.,.,.,.,.,.,.,.,.,.",
",.,.,.,.,.,.,.,.,.,.,.,.,.,.,.,.,.,.# p uX7X7X1Xb.n.c.( ( L.~.uXwX7X7XwXqX~.J.L H b b v / V.x.).].OXOX> 5 ,.,.,.,.,.,.,.,.,.,.,.",
",.,.,.,.,.,.,.,.,.,.,.,.,.,.,.,.,.X.$ d wX<X1X!.v.n.^.4X4XeXeXwXwXwXwXwX-X0X4Xk.L F F F z._._._.OX*X%X& 5 ,.,.,.,.,.,.,.,.,.,.,.",
",.,.,.,.,.,.,.,.,.,.,.,.,.,.,.,.X.  x S S 4XrXeXoXoX;XyX4X%XS.S S I I S @X-X-X-X].(.(.(.+X*X*X*X*X%Xa.% 5 ,.,.,.,.,.,.,.,.,.,.,.",
",.,.,.,.,.,.,.,.,.,.,.,.,.,.,.e % x c B S Q ~.yX@X@X;X;XtXc.P v C C C C ) B.].]._.].+X+X&X*X*XI.I.a.% r X.,.,.,.,.,.,.,.,.,.,.,.",
",.,.,.,.,.,.,.,.,.,.,.,.,.,.,.8 . V v b C L ~.yX9X9X9X9X^.! V c b b H T R B._.[.[.OX*XW.W.W.W.l d d 5 X.,.,.,.,.,.,.,.,.,.,.,.,.",
",.,.,.,.,.,.,.,.,.,.,.,.,.,.,.8 . x b b v / #XuXuXuXuXwXS S C v v v L (.(.(._.*X*X*X*Xa.a.a.a.o   X ,.,.,.,.,.,.,.,.,.,.,.,.,.,.",
",.,.,.,.,.,.,.,.,.,.,.,.,.,.X < A V b v v <X$X;XuXuXuX8XV b v v (.(.(.(.&X*X*X*XI.a.a.        X.,.,.,.,.,.,.,.,.,.,.,.,.,.,.,.,.",
",.,.,.,.,.,.,.,.,.,.,.,.,.,.X < A b k.k.! R.$X5XuXqX:X;X8.8.8.8.+X'.F.+X*X#XI.I.d 2 2 e e e e *.,.,.,.,.,.,.,.,.,.,.,.,.,.,.,.,.",
",.,.,.,.,.,.,.,.,.,.,.,.*. .- D ) L M.S._ c.P.^.3X-X=X=X(.).).).+XG.G.#X#Xp.W W = # # ,.,.,.,.,.,.,.,.,.,.,.,.,.,.,.,.,.,.,.,.,.",
",.,.,.,.,.,.,.,.,.,.,.,. .  N.;XyXoXk.U I x C I I @X{.(.(.Z.V.V.V.V.S.a.a.u      .,.,.,.,.,.,.,.,.,.,.,.,.,.,.,.,.,.,.,.,.,.,.,.",
",.,.,.,.,.,.,.,.,.,.,.6 0 |.1XXX'.P n n C v v L A._.OX&X&XG.V.V.V.a o o o 7 X.X.:.,.,.,.,.,.,.,.,.,.,.,.,.,.,.,.,.,.,.,.,.,.,.,.",
",.,.,.,.,.,.,.,.,.,.,.5 & ;XXXG.x.C v v b 7.7.z.OXA.H..X.XS.E.3XV., X 8 8  .,.,.,.,.,.,.,.,.,.,.,.,.,.,.,.,.,.,.,.,.,.,.,.,.,.,.",
",.,.,.,.,.,.,.,.,.,.X.6 u ;X{.G.v.J H F F _._.'.$XD.V.V.V.i.j.pXV., # ,.,.,.,.,.,.,.,.,.,.,.,.,.,.,.,.,.,.,.,.,.,.,.,.,.,.,.,.,.",
",.,.,.,.,.,.,.,.,.,.  g.uXuXuXqX=X(.(.(.(.5XQ.V.V.V.V.V.V.; j pXV., # ,.,.,.,.,.,.,.,.,.,.,.,.,.,.,.,.,.,.,.,.,.,.,.,.,.,.,.,.,.",
",.,.,.,.,.,.,.,.,.,.  u.:X:X:X=X`.(.+X.XZ.G.D.V.V..XH.z.; r w 4 .Xu # ,.,.,.<.q.4.,.,.,.,.,.,.,.,.,.,.,.,.,.,.,.,.,.,.,.,.,.,.,.",
",.,.,.,.,.,.,.,.,.,.  5.}.}.;X@X'.C.W.E.S.G l.H.H..Xl.G * w q j 0Xp # ,.,.,.<.w.0.,.,.,.,.,.,.,.,.,.,.,.,.,.,.,.,.,.,.,.,.,.,.,.",
",.,.,.,.,.,.,.,.,.,.  6.(.(.*X5X3Xa.a.a.a.  y.+X+XD.s X ,.# j pXpXj # ,.,.,.<.[ 2.,.,.,.,.,.,.,.,.,.,.,.,.,.,.,.,.,.,.,.,.,.,.,.",
",.,.,.,.,.,.,.,.,.,.  d a.a.a.a.W         ,.5 > +XD.s X ,.# j pX+Xu # ,.,.,.,.#.:.,.,.,.,.,.,.,.,.,.,.,.,.,.,.,.,.,.,.,.,.,.,.,.",
",.,.,.,.,.,.,.,.,.,.e 0 2 2 2 2 - e e e r ,.5 > +Xa 0 h ,.# j pX+Xu # ,.,.,.,.:.,.,.,.,.,.,.,.,.,.,.,.,.,.,.,.,.,.,.,.,.,.,.,.,.",
",.,.,.,.,.,.,.,.,.,.,.9 # # # # * ,.,.,.,.,.5 > +X+ 8 ,.,.6 f >Xp.i 6 ,.,.,.,.,.,.,.,.,.,.,.,.,.,.,.,.,.,.,.,.,.,.,.,.,.,.,.,.,.",
",.,.,.,.,.,.,.,.,.,.,.,.,.,.,.,.,.,.,.,.,.,.5 > +X+ 8 ,.,.,.e     e ,.,.,.,.,.,.,.,.,.,.,.,.,.,.,.,.,.,.,.,.,.,.,.,.,.,.,.,.,.,.",
",.,.,.,.,.,.,.,.,.,.,.,.,.,.,.,.,.,.,.,.,.,.5 > +X+ 8 ,.,.,.*.X.X.*.,.,.,.,.,.,.,.,.,.,.,.,.,.,.,.,.,.,.,.,.,.,.,.,.,.,.,.,.,.,.",
",.,.,.,.,.,.,.,.,.,.,.,.,.,.,.,.,.,.,.,.,.,.5 3 wXf.q w ,.,.,.,.,.,.,.,.,.,.,.,.,.,.,.,.,.>.=.,.,.,.,.,.,.,.,.,.,.,.,.,.,.,.,.,.",
",.,.,.,.,.,.,.,.,.,.,.,.,.,.,.,.,.,.,.,.,.,.5 4 pXiXz X ,.,.,.,.,.,.,.,.,.,.,.,.,.,.,.,.=.,.,.,.,.,.,.,.,.,.,.,.,.,.,.,.,.,.,.,.",
",.,.,.,.,.,.,.,.,.,.,.,.,.,.,.,.,.,.,.,.,.,.5 4 pX&Xg X ,.,.,.,.,.,.,.,.,.,.,.,.,.,.,.<.q.9.,.,.,.,.,.,.,.,.,.,.,.,.,.,.,.,.,.,.",
",.,.,.,.,.,.,.,.,.,.,.,.,.,.,.,.,.,.,.,.,.,.5 4 pX&Xg X >.,.,.,.,.,.,.,.,.,.,.,.,.,.,.<.t.0.,.,.,.,.,.,.,.,.,.,.,.,.,.,.,.,.,.,.",
",.,.,.,.,.,.,.,.,.,.,.,.,.,.,.,.,.,.,.,.,.,.e q f.y.u t 3.,.,.,.,.,.,.,.,.,.,.,.,.,.,.<.[ 1.,.,.,.,.,.,.,.,.,.,.,.,.,.,.,.,.,.,.",
",.,.,.,.,.,.,.,.,.,.,.,.,.,.,.,.,.,.,.,.,.,.,. .    y e.} ,.,.,.,.,.,.,.,.,.,.,.,.,.,.,.#.&.,.,.,.,.,.,.,.,.,.,.,.,.,.,.,.,.,.,.",
",.,.,.,.,.,.,.,.,.,.,.,.,.,.,.,.,.,.,.,.,.,.,.,.,.=.q.9./.,.,.,.,.,.,.,.,.,.,.,.,.,.,.,.,.,.,.,.,.,.,.,.,.,.,.,.,.,.,.,.,.,.,.,.",
",.,.,.,.,.,.,.,.,.,.,.,.,.,.,.,.,.,.,.,.,.,.,.,.,.=.=.O.&.,.,.,.,.,.,.,.,.,.,.,.,.,.,.,.,.,.,.,.,.,.,.,.,.,.,.,.,.,.,.,.,.,.,.,.",
",.,.,.,.,.,.,.,.,.,.,.,.,.,.,.,.,.,.,.,.,.,.,.,.,.,.:.@.,.,.,.,.,.,.,.,.,.,.,.,.,.,.,.,.,.,.,.,.,.,.,.,.,.,.,.,.,.,.,.,.,.,.,.,.",
",.,.,.,.,.,.,.,.,.,.,.,.,.,.,.,.,.,.,.,.,.,.,.,.,.,.,.,.,.,.,.,.,.,.,.,.,.,.,.,.,.,.,.,.,.,.,.,.,.,.,.,.,.,.,.,.,.,.,.,.,.,.,.,.",
",.,.,.,.,.,.,.,.,.,.,.,.,.,.,.,.,.,.,.,.,.,.,.,.,.,.,.,.,.,.,.,.,.,.,.,.,.,.,.,.,.,.,.,.,.,.,.,.,.,.,.,.,.,.,.,.,.,.,.,.,.,.,.,.",
",.,.,.,.,.,.,.,.,.,.,.,.,.,.,.,.,.,.,.,.,.,.,.,.,.,.,.,.,.,.,.,.,.,.,.,.,.,.,.,.,.,.,.,.,.,.,.,.,.,.,.,.,.,.,.,.,.,.,.,.,.,.,.,.",
",.,.,.,.,.,.,.,.,.,.,.,.,.,.,.,.,.,.,.,.,.,.,.,.,.,.,.,.,.,.,.,.,.,.,.,.,.,.,.,.,.,.,.,.,.,.,.,.,.,.,.,.,.,.,.,.,.,.,.,.,.,.,.,.",
",.,.,.,.,.,.,.,.,.,.,.,.,.,.,.,.,.,.,.,.,.,.,.,.,.,.,.,.,.,.,.,.,.,.,.,.,.,.,.,.,.,.,.,.,.,.,.,.,.,.,.,.,.,.,.,.,.,.,.,.,.,.,.,.",
",.,.,.,.,.,.,.,.,.,.,.,.,.,.,.,.,.,.,.,.,.,.,.,.,.,.,.,.,.,.,.,.,.,.,.,.,.,.,.,.,.,.,.,.,.,.,.,.,.,.,.,.,.,.,.,.,.,.,.,.,.,.,.,.",
",.,.,.,.,.,.,.,.,.,.,.,.,.,.,.,.,.,.,.,.,.,.,.,.,.,.,.,.,.,.,.,.,.,.,.,.,.,.,.,.,.,.,.,.,.,.,.,.,.,.,.,.,.,.,.,.,.,.,.,.,.,.,.,."
};
