/* XPM */
static char *f66eecd86fed4966d047271eb46ec272i65XZmyzyp4LN3T4[] = {
/* columns rows colors chars-per-pixel */
"64 64 222 2 ",
"   c #273F0D",
".  c #2B3D0E",
"X  c #313B0F",
"o  c #273E11",
"O  c #2D3D13",
"+  c #3B3616",
"@  c #353A16",
"#  c #383816",
"$  c #3C351A",
"%  c #373818",
"&  c #3B3A1E",
"*  c #373E20",
"=  c #4C2E1F",
"-  c #44321C",
";  c #4C2E21",
":  c #463421",
">  c #4A3323",
",  c #0D4B02",
"<  c #0E4E09",
"1  c #154606",
"2  c #1C4307",
"3  c #114903",
"4  c #164708",
"5  c #1A450A",
"6  c #114E09",
"7  c #0E520B",
"8  c #12530E",
"9  c #1B4F10",
"0  c #1D4D1A",
"q  c #0F5810",
"w  c #0F5D1B",
"e  c #145415",
"r  c #135A14",
"t  c #145419",
"y  c #1B531B",
"u  c #155B1B",
"i  c #195C1A",
"p  c #22420D",
"a  c #264212",
"s  c #2A4314",
"d  c #244C15",
"f  c #29431E",
"g  c #234B1B",
"h  c #2A4F1E",
"j  c #33401D",
"k  c #25571E",
"l  c #016317",
"z  c #02631A",
"x  c #07671D",
"c  c #17641E",
"v  c #19601C",
"b  c #17681E",
"n  c #175C21",
"m  c #1A5F23",
"M  c #3B4121",
"N  c #3B4A27",
"B  c #2C5423",
"V  c #285627",
"C  c #36542A",
"Z  c #385C34",
"A  c #066620",
"S  c #096722",
"D  c #066820",
"F  c #0B6A24",
"G  c #0E6C29",
"H  c #146522",
"J  c #1B6323",
"K  c #1B6A24",
"L  c #1C642A",
"P  c #126E2C",
"I  c #1E6A2A",
"U  c #0D7129",
"Y  c #12732C",
"T  c #1B7329",
"R  c #1E6C32",
"E  c #167332",
"W  c #197532",
"Q  c #1B7A35",
"!  c #147038",
"~  c #1D7A3A",
"^  c #216626",
"/  c #206927",
"(  c #29652E",
")  c #226C2C",
"_  c #2C782D",
"`  c #216231",
"'  c #226C32",
"]  c #336838",
"[  c #3A683E",
"{  c #257334",
"}  c #2A7435",
"|  c #2C7934",
" . c #26743A",
".. c #2A753B",
"X. c #237D3D",
"o. c #2B7B3D",
"O. c #48442B",
"+. c #44492D",
"@. c #454C30",
"#. c #435233",
"$. c #425938",
"%. c #41623E",
"&. c #366E41",
"*. c #396F42",
"=. c #237E40",
"-. c #2C7E43",
";. c #2B7F4F",
":. c #357645",
">. c #3C7243",
",. c #337843",
"<. c #457759",
"1. c #5C656D",
"2. c #1B823C",
"3. c #23803E",
"4. c #4F9823",
"5. c #6CBB37",
"6. c #7EC23D",
"7. c #1E8C43",
"8. c #268144",
"9. c #2C8245",
"0. c #268945",
"q. c #2D854A",
"w. c #268C4A",
"e. c #2E894D",
"r. c #318246",
"t. c #32854B",
"y. c #32894E",
"u. c #24934D",
"i. c #2E8A51",
"p. c #348753",
"a. c #328A51",
"s. c #368C5B",
"d. c #38885B",
"f. c #2D9353",
"g. c #2A9D56",
"h. c #2E9E59",
"j. c #329355",
"k. c #349B56",
"l. c #34945B",
"z. c #3C905F",
"x. c #339C5B",
"c. c #11A14A",
"v. c #0BA452",
"b. c #14A354",
"n. c #18A655",
"m. c #1CA95A",
"M. c #35AA40",
"N. c #27A55B",
"B. c #2DAB5D",
"V. c #32A35E",
"C. c #35AC5B",
"Z. c #36B15F",
"A. c #388C65",
"S. c #3B8E64",
"D. c #399462",
"F. c #399767",
"G. c #369D62",
"H. c #3A9E6A",
"J. c #3A8E76",
"K. c #2DAD63",
"L. c #34A563",
"P. c #33AD64",
"I. c #38AB63",
"U. c #36A569",
"Y. c #3AA46C",
"T. c #36AC69",
"R. c #39AC6E",
"E. c #39B26A",
"W. c #3EA073",
"Q. c #3CAC73",
"!. c #3FAD79",
"~. c #469752",
"^. c #45A65E",
"/. c #53AF55",
"(. c #418F64",
"). c #41946C",
"_. c #419D6E",
"`. c #508B75",
"'. c #439974",
"]. c #469778",
"[. c #43AC69",
"{. c #40A675",
"}. c #43A37B",
"|. c #41AC7C",
" X c #49B674",
".X c #55B173",
"XX c #7CB16F",
"oX c #69C248",
"OX c #96B912",
"+X c #82BB25",
"@X c #8BC53B",
"#X c #A4D332",
"$X c #EFED11",
"%X c #CEDE24",
"&X c #82B664",
"*X c #87CC42",
"=X c #CEDF4E",
"-X c #EFEC4B",
";X c #676F83",
":X c #448B81",
">X c #4C9985",
",X c #569E98",
"<X c #49A384",
"1X c #45AD83",
"2X c #4BAC8B",
"3X c #56AA89",
"4X c #45B084",
"5X c #49B18A",
"6X c #54A799",
"7X c #4EB090",
"8X c #50B197",
"9X c #52B19A",
"0X c #75B689",
"qX c #7794BE",
"wX c #5AA8A2",
"eX c #5EACAB",
"rX c #5AB2A7",
"tX c #5FB2B0",
"yX c #64A9B2",
"uX c #63B1B5",
"iX c #64B1B8",
"pX c #A8DCAE",
/* pixels */
"P.P.P.P.P.P.P.P.P.P.T.m.N.m.n.P.P.P.P.P.P.P.K.n.m.m.v.P.P.P.P.P.P.P.P.P.P.P.#X%XoXP.P.T.P.P.P.P.P.P.P.P.P.P.P.Z.M./.P.P.P.P.P.P.",
"P.P.P.P.P.P.P.P.P.P.P.K.P.P.P.P.P.P.P.P.P.P.P.m.K.B.N.P.P.P.P.P.P.P.P.P.P.P.#X$X5.P.P.P.P.P.P.P.P.P.P.P.P.P.P.P.N.T.P.P.P.P.P.P.",
"P.P.P.P.P.P.P.P.P.P.P.P.P.P.P.P.P.P.P.P.P.P.P.P.P.P.P.P.P.P.P.P.P.P.P.P.P.C.*X5./.P.P.P.P.P.P.P.P.P.P.P.P.P.K.P.P.P.P.P.P.P.P.P.",
"P.P.P.P.P.P.P.P.P.P.P.P.P.P.P.P.P.P.P.P.P.P.P.P.P.P.P.P.P.P.P.P.P.P.P.P.P.P.B.c.P.P.P.P.P.P.P.P.P.P.P.P.P.P.P.T.P.P.P.P.P.P.P.P.",
"P.P.P.P.P.P.P.P.P.P.P.P.P.P.P.P.P.P.P.P.P.P.P.P.P.P.P.P.P.P.P.P.P.P.P.P.P.P.B.n.P.P.T.P.P.P.P.P.P.P.P.P.P.P.P.P.P.P.P.P.P.P.P.P.",
"P.P.P.P.P.P.P.P.P.P.P.P.P.P.P.P.P.P.P.P.P.P.P.P.P.P.P.P.P.P.j.T.P.P.P.P.P.P.P.P.P.P.T.T.P.P.R.T.P.P.P.P.P.P.P.P.P.P.P.P.P.P.P.P.",
"P.P.P.P.P.P.P.P.P.P.P.P.P.P.P.P.P.P.P.P.P.P.P.P.P.P.P.P.P.L.a.x.P.P.P.P.P.P.P.P.P.P.P.P.P.P.2XH.P.P.P.P.P.P.P.P.P.P.P.P.P.P.P.P.",
"P.P.P.P.P.P.P.P.P.P.P.P.P.P.P.P.P.P.P.P.P.P.P.P.P.P.P.P.P.j.C ^ P.P.P.P.P.P.P.P.P.P.P.P.P.T.).a.R.P.P.P.P.P.P.P.P.P.P.P.P.P.P.P.",
"P.P.P.P.P.P.P.P.P.P.P.P.P.P.P.P.P.P.P.P.P.P.P.P.P.P.P.P.L.a.a d x.P.P.P.P.P.P.P.P.P.P.P.P.2Xy.y.D.P.P.P.P.P.P.P.P.P.P.P.P.P.P.P.",
"P.P.P.P.P.P.P.P.P.P.P.P.P.P.Q.P.P.P.P.P.P.P.P.P.P.P.P.P.a.q.6 < y.P.P.P.P.P.P.P.P.P.P.P.T.).y.t.t.Q.P.P.P.P.P.P.P.P.P.P.P.P.P.P.",
"P.P.P.P.P.P.P.P.P.P.P.P.P.P.F.x.P.P.P.P.P.P.P.P.P.P.P.G.a.I 1 5 ) x.P.P.P.P.P.P.P.P.P.P.1Xp.:.a k j.P.P.P.P.P.P.P.P.P.P.P.P.P.P.",
"P.P.P.P.P.P.P.P.P.P.P.P.P.|.y.y.P.P.P.P.P.P.P.P.P.P.T.a.9.< O % 6 q.V.P.P.P.P.P.P.P.P.P.'.y.&.2 d a.Y.P.P.P.P.P.P.P.P.P.P.P.P.P.",
"P.P.P.P.P.P.P.P.P.P.P.P.P.).y.t.k.P.P.P.P.P.P.P.P.P.H.t.r 7 M O 6 r a.P.P.P.P.P.P.P.P.1Xp.i.} 3 8 y.a.T.P.P.P.P.P.P.P.P.P.P.P.P.",
"P.P.P.P.P.P.P.P.P.P.P.P.1Xp.:.a V P.P.P.P.P.P.P.P.R.9.r ,  .k a { , v j.P.P.P.P.P.P.P.].y.i.i , , o.y.G.P.P.P.P.P.P.P.P.P.P.P.P.",
"P.P.P.P.P.P.P.P.P.P.P.T.'.y.&.2 d x.P.P.P.P.P.P.P.D.< < ) y.8 # -.J , r G.P.P.P.P.P.1Xp.y..., . 5 r y.p.R.P.P.P.P.P.P.P.P.P.P.P.",
"P.P.P.P.P.P.P.P.P.P.P.2Xp.i.} 3 8 y.L.P.P.P.P.P.P.T.F.d.a.{ , - I a.K K P.P.P.P.P.P.].a.t.8 3 - % , { p.l.P.P.P.P.P.P.P.P.P.P.P.",
"P.P.P.P.P.P.P.P.P.P.T.].y.i.i , , o.j.P.P.P.P.P.P.P.2Xa.t.7 p ; w 0.j.P.P.P.P.P.P.!.p.y.J , y $ @ 6 7 9.y.R.P.P.P.P.P.P.P.P.P.P.",
"P.P.P.P.P.P.P.P.P.P.9Xp.y..., . 5 r y.x.P.P.P.P.P.P.'.p.v , N ; J P y.P.P.P.P.P.P.}.t.J , 8 ,.5 a ) , 8 r.j.P.P.P.P.P.P.P.P.P.P.",
"P.P.P.P.P.P.P.P.P.R.>Xa.t.8 3 - % , { p.V.P.P.0X0X3Xt.J , / $.= ,.z W l.P.P.P.P.Q. .r , < o.r.3 + r.u , 7 -.U.P.P.P.P.P.P.P.P.P.",
"P.P.P.P.P.P.P.P.P.rXp.y.J , y $ @ 6 7 9.y.T.P.^.-XXXr , J a.( 5 ,.~ z W P.P.P.P.Q.r , r o.e.^ , - { t.r , 7 x.P.P.P.P.P.P.P.P.P.",
"P.P.P.P.P.P.P.P.Q.>Xt.J , 8 ,.5 a ) , 8 r.j.P.pX=XXX[.H.a.y.V , ) a.w.U 2.P.P.P.P.|.<X(.a.r.< 5 = H a.t.u T P.P.P.P.P.P.P.P.P.P.",
"P.P.P.P.P.P.P.P.rX .r , < o.r.3 + r.u , 7 -.U. Xg..XE._.a.r.s 3 8 t.l.P.T.P.P.P.P.P.1Xy.y.J , # ; u X.a.k.Y.P.P.P.P.P.P.P.P.P.P.",
"P.P.P.P.P.P.P.P.Q.u r r o.e.^ , - { t.r , K P.P.b.K.Q.a.a.) o   , ) a.T.P.P.P.P.P.T.D.p.} , 8 : ; J S e.j.P.P.P.P.P.P.P.P.P.P.P.",
"P.P.P.P.P.P.P.P.P.P.<X(.a.r.< 5 = H a.t.I b P.P.n.K.D.a.y.8 p O , < | j.P.P.P.P.P.|.y.o.< , } > ; ] z P y.x.P.P.P.P.P.P.P.P.P.P.",
"P.P.P.P.P.P.P.P.P.T.eXy.y.J , # ; u X.a.V.P.P.P.P.{.a.y.) , 6 0 d , < { L.P.P.P.P.s.) < , / e.M % >.E z Y a.P.P.P.P.P.P.P.P.P.P.",
"P.P.P.P.P.P.P.P.P.9XS.p.} , 8 : ; J S e.j.P.P.P.T.s.y.9.< , e 0 ] r , , u P.P.P.Q.r , , ^ i.p.9 3 ..e.F l G f.P.P.P.P.P.P.P.P.P.",
"P.P.P.P.P.P.P.P.P.wXy.o.< , } > ; ] z P y.L.P.P.W.a.q.r , < m g V t.I < , K P.P.l.V.L.W.a.y.t.p , ^ a.e.! z S L.P.P.P.P.P.P.P.P.",
"P.P.P.P.P.P.P.P.7Xd.) < , / e.M % >.E z Y j.P.Q.9.) 8 , , ) t f y q.y.t. .{ U.T.P.P.P.'.a.a.{ X , < q.y.Y.P.P.P.P.P.P.P.P.P.P.P.",
"P.P.P.P.P.P.P.P.<XK K c ^ i.p.9 3 ..e.F l G V.G.r , , , i  .t & y W a.Y.F.a.j.P.P.P.2Xy.a.p.q + 1 , J a.j.P.P.P.P.P.P.P.P.P.P.P.",
"P.P.P.P.P.P.P.1XV.P.P.>Xa.y.t.p , ^ a.e.u.7.7.U.S., < J t.m 0 : y z e.{.P.|.2XT.P.Q.S.p.y.o., $ O , , ..a.L.P.P.P.P.P.P.P.P.P.P.",
"P.P.P.P.P.P.P.P.P.P.rX].a.a.{ X , < q.y.U.P.P.P.R.].t.y.o.r g ; y z W a.T.P.P.P.P.<Xy.y.y.u , s s 3 , 7 o.a.P.P.P.P.P.P.P.P.P.P.",
"P.P.P.P.P.P.P.P.P.Q.yXy.a.p.q + 1 , J a.x.P.P.P.T.a.a.y.n e Z - ( z z 0.x.P.P.P.|.p.y.a.{ , , e g h 3 , < { j.P.P.P.P.P.P.P.P.P.",
"P.P.P.P.P.P.P.P.P.iXS.p.y.o., $ O , , ..a.P.P.P.}.y.a.' r L ] 4 } A z G y.U.P.P.'.y.a.t.7 3 , t 0 Z v , , , r s.P.P.P.P.P.P.P.P.",
"P.P.P.P.P.P.P.P.4X,Xy.y.y.u , s s 3 , 7 o.j.P.R.a.a...t t -.C 4 v W z z W y.T.1Xa.a.y.v , , r t g V t.I , , , , h.P.P.P.P.P.P.P.",
"P.P.P.P.P.P.P.P.iXp.y.a.{ , , e g h 3 , < { f.H.a.o.t e I y.B p < 9.z z z X.G.z.p.r.u , , , ) e f d 9.a.9./ u 7 w.P.P.P.P.P.P.P.",
"P.P.P.P.P.P.P.9X].y.a.t.7 3 , t 0 Z v , , , r p...t e u r.8.g % , K ~ z z x '.o.r < , , , J ) t * d E y.y.y.y.y.j.P.P.P.P.P.P.P.",
"P.P.P.P.P.P.R.yXa.a.y.v , , r t g V t.I , , , 6 t e r ..y.P g - , < o.G z ! p.K , , , , i r.u t - g x e.D.Q.P.x.a.V.P.P.P.P.P.P.",
"P.P.P.P.P.P.tXz.p.r.u , , , ) e f d 9.a.9./ u 7 t t ' a.=.z g = 4 , r 9.A q.D z e 3 < J y.{ t g ; g z ~ y.R.P.P.P.T.P.P.P.P.P.P.",
"P.P.P.P.P.|.,Xo.r < , , , J ) t * d E y.a.j.t.y.9.' y.e.S l V ; k , , I s.G z z :X..r.y.t.u r j ; g z x e.j.P.P.P.P.P.P.P.P.P.P.",
"P.P.P.P.P.iXj.K , , , , i r.u t - g x e.G.P.|.D.p.a.a.Y z z ] ; [ < , ,  .=.z z S.a.a.a.{ e t O.: V z z W a.L.P.P.P.P.P.P.P.P.P.",
"P.P.P.P.5XY.P.U.e 3 < J y.{ t g ; g z ~ x.P.P.P.z.y.E z z W [ ; *.) , , < -.q.G p.y.a.9.t e R +.o ] S z z 8.a.T.P.P.P.P.P.P.P.P.",
"P.P.P.T.T.P.P.P.6X..r.y.t.u r j ; g z x i.P.P.}.q.P z z F y.[ ; *.y.r , , 7 9.&Xa.y.t.J t y q.M , ) W l z F p.j.P.P.P.P.P.P.P.P.",
"P.P.P.P.P.P.P.Q.wXa.a.a.{ e t O.: V z z W j.T.Q z l z S 0.y.*.; *.a.o.< , , 8 p.a.a.) t e  .q.& , 8 q.z z z E y.L.P.P.P.P.P.P.P.",
"P.P.P.P.P.P.P.uXs.y.a.9.t e R +.o ] S z z 8.w.z z z z 0.a.y.*.> *.y.a.{ , , ' a.a.' t e u t.8.& 5 , o.W z z l ~ a.P.P.P.P.P.P.P.",
"P.P.P.P.P.P.!.,Xa.y.t.J t y q.M , ) W l z F e.D z G 0.j.V.G.<.$.L.x.j.a.' < q.t.' t e t  .a.W & . , u q.z z z z X.j.P.P.P.P.P.P.",
"P.P.P.P.P.P.uXp.a.a.) t e  .q.& , 8 q.z z z E 8.8.H.P.T.P.9XqX#.P.P.P.R.{.d.q.L e t e L y.q.z & # , , { ~ z z l z 8.V.P.P.P.P.P.",
"P.P.P.P.P.1X>Xp.a.' t e u t.8.& 5 , o.W z z l ~ x.P.P.P.P. X.X>.P.P.P.P.P.8.t t t e u r.y.E z & - 3 , 7 t.G z z z z e.P.P.P.P.P.",
"P.P.P.P.P.eXp.t.' t e t  .a.W & . , u q.z z z z 3.V.P.P.P.P.P.P.P.P.P.P.U.n e t t u -.a.0.z z & ; 5 , , J q.A z z z x f.P.P.P.P.",
"P.P.P.P.4X].q.L e t e L y.q.z & # , , { ~ z z l z 0.P.P.P.P.P.P.P.P.P.P.Y.-.L t u -.a.e.G z z * ; B , , , } 8.z z z z z V.P.P.P.",
"P.P.P.P.eX .t t t e u r.y.E z & - 3 , 7 t.G z z z z f.P.P.P.P.P.P.P.P.P.P.P.P.l.t.a.a.Q z l S +.; [ 7 , , 7 9.=.z z z z g.P.P.P.",
"P.P.P.1XS.n e t t u -.a.0.z z & ; 5 , , J q.A z z z x h.P.P.P.P.P.P.P.P.P.P.P.<Xy.a.X.z z z X.@.; [ { , , , r y.8.z x u.P.P.P.P.",
"P.P.P.P.P.` t t u -.a.e.G z z * ; B , , , } 8.z z z z Y T.P.T.P.P.P.P.P.P.P.!.p.a.~ z z z P a.@.; [ y.r , , , u t.x.P.P.P.P.P.P.",
"P.P.P.P.P.P.P.d.t.a.a.Q z l S +.; [ 7 , , 7 9.=.z z z 4.oXP.P.P.P.P.P.P.P.P.>Xq.E z z z S q.a.@.; [ a.-.< , , , u k.P.P.P.P.P.P.",
"P.P.P.P.P.P.|.,Xy.a.X.z z z X.@.; [ { , , , r y.8.z l OX6.P.P.P.P.P.P.P.P.Q.E z z z l A 0.y.y.#.= [ a.y.) , , , , u x.P.P.P.P.P.",
"P.P.P.P.P.P.iXp.a.~ z z z P a.@.= [ y.r , , , u V.C.@X+X*XT.P.T.P.P.P.P.P.Y z z z z z 8.a.y.y.#.= [ y.y.y.v , , , , 7 V.P.P.P.P.",
"P.P.P.P.P.4X>Xq.E z z z S q.a.@.= [ y.-.< , , , v k.C.c.B.P.P.P.P.P.P.P.U.z z z z S 9.a.p.j.j.#.; [ y.y.y.t.u , , , , 7 V.P.P.P.",
"P.P.P.P.P.6XE z z z l A 0.y.y.#.= [ a.a.) , , , , u V.b.P.P.P.P.P.P.P.P.i.z z z Q f.x.V.P.P.T.1.; P.T.T.U.x.k.Q < , , , r P.P.P.",
"P.P.P.P.|.z z l z z z 8.a.y.y.#.= [ y.y.y.v , , , , 7 h.P.P.P.P.P.P.P.|.y.Q w.L.P.P.P.P.P.P.T.;X= Y.P.P.P.P.P.P.f., , , , { P.P.",
"P.P.P.P.J.z z z z S 9.a.j.x.x.#.O.j.j.a.y.t.u , , , , < k.P.P.P.P.P.P.^.[.T.P.P.P.P.P.P.P.P.P.~.>.I.P.P.P.P.P.P.P.k.< , , | x.P.",
"P.P.P.8X;.z z F 0.x.L.P.P.P.Q.1.%.P.P.P.P.V.j.c , , , , < x.P.T.P.P.P.T.P.P.P.P.P.P.P.P.P.P.P.P.P.P.P.P.P.P.P.P.P.P.^._ ~.[.I.P.",
"P.P.T.6Xy.w.V.P.P.P.P.P.P.P.Q.`.k.P.P.P.P.P.P.T.q., , , , J U.T.P.P.P.P.P.P.P.P.P.P.P.P.P.P.P.P.P.P.P.P.P.P.P.P.P.P.P.P.P.P.P.P.",
"P.T.P.I.P.P.P.P.P.P.P.P.P.P.P.P.P.P.P.P.P.P.P.P.P.k.7 , < 0.j.P.P.P.P.P.P.P.P.P.P.P.P.P.P.P.P.P.P.P.P.P.P.P.P.P.P.P.P.P.P.P.P.P.",
"P.P.P.P.P.P.P.P.P.P.P.P.P.P.P.P.P.P.P.P.P.P.P.P.P.P.I.k.P.P.P.P.P.P.P.P.P.P.P.P.P.P.P.P.P.P.P.P.P.P.P.P.P.P.P.P.P.P.P.P.P.P.P.P.",
"P.P.P.P.P.P.P.P.P.P.P.P.P.P.P.P.P.P.P.P.P.P.P.P.P.P.P.P.P.P.P.P.P.P.P.P.P.P.P.P.P.P.P.P.P.P.P.P.P.P.P.P.P.P.P.P.P.P.T.T.P.P.P.P."
};
