/* XPM */
static char *_c4527c27ea64d95d84bf9be741f7570q6DhOwBULhi4Dmp6[] = {
/* columns rows colors chars-per-pixel */
"64 64 220 2 ",
"   c #C85C16",
".  c #E4731B",
"X  c #EB731C",
"o  c #F1721C",
"O  c #DF7C36",
"+  c #E57623",
"@  c #EC7522",
"#  c #E57C25",
"$  c #ED7A24",
"%  c #ED742A",
"&  c #EE7C2B",
"*  c #F27522",
"=  c #F27A26",
"-  c #F4772A",
";  c #F37D2B",
":  c #E57A32",
">  c #ED7D32",
",  c #6CBB37",
"<  c #0EA34F",
"1  c #16A756",
"2  c #1CA95A",
"3  c #22A75A",
"4  c #2DAB5D",
"5  c #39AE52",
"6  c #2DAD63",
"7  c #33AD64",
"8  c #3BAE61",
"9  c #34AE69",
"0  c #39AE6B",
"q  c #3CB16B",
"w  c #3EAE72",
"e  c #3EB172",
"r  c #768958",
"t  c #5FBC4F",
"y  c #48B154",
"u  c #5AB55D",
"i  c #66B94B",
"p  c #68B951",
"a  c #40AF61",
"s  c #43AB6D",
"d  c #44B267",
"f  c #4BB363",
"g  c #52B662",
"h  c #5CB560",
"j  c #57B76C",
"k  c #43AD73",
"l  c #4FAC79",
"z  c #5CA772",
"x  c #42B375",
"c  c #45B57C",
"v  c #59B974",
"b  c #71A06E",
"n  c #71BE66",
"m  c #68BD75",
"M  c #69C04D",
"N  c #7DC461",
"B  c #75C475",
"V  c #7BC677",
"C  c #DB862F",
"Z  c #CA853D",
"A  c #E28426",
"S  c #E4852B",
"D  c #ED832B",
"F  c #F3812C",
"G  c #EC8337",
"H  c #F68332",
"J  c #E7993D",
"K  c #A4D332",
"L  c #F7E907",
"P  c #FCE905",
"I  c #FBE908",
"U  c #EFED11",
"Y  c #F7EB14",
"T  c #CEDE24",
"R  c #EEDE28",
"E  c #EADC34",
"W  c #EADE3A",
"Q  c #F0DF34",
"!  c #EDE028",
"~  c #ECE135",
"^  c #EDE03B",
"/  c #9D9759",
"(  c #B49158",
")  c #979868",
"_  c #9A9B76",
"`  c #AD9263",
"'  c #C7854B",
"]  c #D88648",
"[  c #C19053",
"{  c #E28F41",
"}  c #E79949",
"|  c #E7A943",
" . c #E9B34A",
".. c #E7A858",
"X. c #EEBD51",
"o. c #F2BD50",
"O. c #8ACF41",
"+. c #93CB6C",
"@. c #88CA75",
"#. c #97D17A",
"$. c #AAD66D",
"%. c #A7D678",
"&. c #B9DC77",
"*. c #EBDE45",
"=. c #EDC559",
"-. c #F1C85B",
";. c #EAE147",
":. c #C0DD77",
">. c #E6DD6A",
",. c #F6D766",
"<. c #C9E174",
"1. c #CCE279",
"2. c #D7E677",
"3. c #ECEA71",
"4. c #EBEA79",
"5. c #F7E677",
"6. c #F5EE76",
"7. c #FBEF76",
"8. c #F5ED7B",
"9. c #FBEE79",
"0. c #F6F176",
"q. c #FAF075",
"w. c #F5F17A",
"e. c #F9F179",
"r. c #91B488",
"t. c #BCDF82",
"y. c #B7DDA2",
"u. c #CDE885",
"i. c #DDEB82",
"p. c #D4E988",
"a. c #EEEC86",
"s. c #F5ED84",
"d. c #F9ED84",
"f. c #F4EC8C",
"g. c #F9ED8B",
"h. c #F6F083",
"j. c #F8F185",
"k. c #F7F08B",
"l. c #F5ED92",
"z. c #F9EE92",
"x. c #FAEF9A",
"c. c #F6F295",
"v. c #F9F193",
"b. c #F6F29C",
"n. c #F9F29D",
"m. c #C3E2A2",
"M. c #D7EAA5",
"N. c #E8F1AE",
"B. c #F6F4A3",
"V. c #FBF5A4",
"C. c #FCF9A4",
"Z. c #F5F6AD",
"A. c #FDF5AB",
"S. c #F6F6B3",
"D. c #FAF5B3",
"F. c #F5F8B3",
"G. c #F7F7BB",
"H. c #FAF6BC",
"J. c #F6F8BF",
"K. c #FBF9BA",
"L. c #96CDEF",
"P. c #9BCEEA",
"I. c #9BD3E7",
"U. c #95D2EC",
"Y. c #9DD2EC",
"T. c #96CEF3",
"R. c #9ACEF3",
"E. c #8FD4F5",
"W. c #93D2F3",
"Q. c #9BD1F2",
"!. c #93D3FB",
"~. c #ACD5E5",
"^. c #A3D3EB",
"/. c #ACD5EC",
"(. c #A7D8E9",
"). c #B9DAE5",
"_. c #B5DDEC",
"`. c #A2D6F1",
"'. c #ADD9F2",
"]. c #B3DCF1",
"[. c #B6E2ED",
"{. c #BCE2ED",
"}. c #BBE3F2",
"|. c #BFEAF5",
" X c #F6F7C6",
".X c #F6F8C3",
"XX c #F8F8C4",
"oX c #FCF6CC",
"OX c #F5F8CC",
"+X c #FBF8C9",
"@X c #EEF6DF",
"#X c #F4FAD5",
"$X c #FBF9D2",
"%X c #F4FADC",
"&X c #F8F9D8",
"*X c #C1DFEB",
"=X c #C0DFF0",
"-X c #C5E4ED",
";X c #C9E8EE",
":X c #D3EBED",
">X c #D8EDEE",
",X c #DCF1EE",
"<X c #C3E4F2",
"1X c #C4EBF3",
"2X c #CAEBF4",
"3X c #CAE9F6",
"4X c #D2EDF4",
"5X c #DBEEF3",
"6X c #CAF0F7",
"7X c #DCF3F5",
"8X c #E1EFEF",
"9X c #ECF7E5",
"0X c #EBF8E4",
"qX c #E4F4EA",
"wX c #ECF5EC",
"eX c #ECF9EC",
"rX c #F3FAE1",
"tX c #F2F9EA",
"yX c #E3F6F2",
"uX c #EBF6F1",
/* pixels */
"7 7 7 7 7 7 7 7 7 7 7 2 3 2 1 7 7 7 7 7 7 7 6 1 2 2 < 7 7 7 7 7 7 7 7 7 7 7 K T M 9 7 7 7 7 7 7 7 7 7 7 7 7 7 8 5 y 7 7 7 7 7 7 ",
"7 7 7 7 7 7 7 7 7 7 7 6 7 7 7 7 7 7 7 7 7 7 7 2 6 4 3 7 7 7 7 7 7 7 7 7 7 7 K U , 7 7 7 7 7 7 7 7 7 7 7 7 7 7 7 3 7 7 7 7 7 7 7 ",
"7 7 7 7 7 7 7 7 7 7 7 7 7 7 7 7 7 7 7 7 7 7 7 7 7 7 7 7 7 7 7 7 7 7 7 7 7 5 O., t 7 7 7 7 7 7 7 7 7 7 7 7 7 6 7 7 7 7 7 7 7 7 7 ",
"7 7 7 7 7 7 7 7 7 7 7 7 7 7 7 7 7 7 7 7 7 7 7 7 7 7 7 7 7 7 7 7 7 7 7 7 7 7 4 < 7 7 7 7 7 7 7 7 7 7 7 7 7 7 7 7 7 7 7 7 7 7 7 7 ",
"7 7 7 7 7 7 7 7 7 7 7 7 7 7 7 7 7 7 7 7 7 7 7 7 7 7 7 7 7 7 7 7 7 7 7 7 7 7 4 1 7 7 7 7 7 7 7 7 7 7 7 7 7 7 7 7 7 7 7 7 7 7 7 7 ",
"7 7 7 7 7 7 7 7 7 7 7 7 7 7 7 7 7 7 7 7 7 7 7 7 7 7 7 7 7 7 7 7 7 7 7 7 7 7 7 7 7 7 7 7 7 7 7 7 7 7 7 7 7 7 7 7 7 7 7 7 7 7 7 7 ",
"7 7 7 7 7 7 7 7 7 7 7 7 7 7 7 7 7 7 7 7 7 7 7 7 7 7 7 7 7 7 7 7 7 w ) ` r b z k 0 7 7 7 7 7 7 7 7 7 7 7 7 7 7 7 7 7 7 7 7 7 7 7 ",
"7 7 7 7 7 7 7 7 7 7 7 7 7 7 7 7 7 7 7 7 7 7 7 7 7 7 7 7 7 7 7 7 s ( @ D   & > O ] ( v 7 7 7 7 7 7 7 7 7 7 7 7 7 7 7 7 7 7 7 7 7 ",
"7 7 7 7 7 7 7 7 7 7 7 7 7 7 7 7 7 7 7 7 7 7 7 7 7 7 7 7 7 7 7 s Z X $ %   $ X X A ,.i.x 7 7 7 7 7 7 7 7 7 7 7 7 7 7 7 7 7 7 7 7 ",
"7 7 7 7 7 7 7 7 7 7 7 7 7 7 7 7 7 7 7 7 7 7 7 7 7 7 7 7 7 7 s Z $ & $ = $ + > S ,.7.9.p.d 7 7 7 7 7 7 7 7 7 7 7 7 7 7 7 7 7 7 7 ",
"7 7 7 7 7 7 7 7 7 7 7 7 7 7 7 7 7 7 7 7 7 7 7 7 7 7 7 7 7 s Z X * - @ $ @ $ S ,.q.7.9.9.u.q 7 7 7 7 7 7 7 7 7 7 7 7 7 7 7 7 7 7 ",
"7 7 7 7 7 7 7 7 7 7 7 7 7 7 7 7 7 7 7 7 7 7 7 7 7 7 7 7 s C @ ; = o ; * = S ,.w.6.9.9.9.7.1.0 7 7 7 7 7 7 7 7 7 7 7 7 7 7 7 7 7 ",
"7 7 7 7 7 7 7 7 7 7 7 7 7 7 7 7 7 7 7 7 7 7 7 7 7 7 7 s ' % ; @ + = X X A -.7.7.0.0.9.9.7.8.t.7 7 7 7 7 7 7 7 7 7 7 7 7 7 7 7 7 ",
"7 7 7 7 7 7 7 7 7 7 7 7 7 7 7 7 7 7 7 7 7 7 7 7 7 7 k [ = X $ * = $ ; S -.e.9.7.7.9.q.9.9.q.9.%.7 7 7 7 7 7 7 7 7 7 7 7 7 7 7 7 ",
"7 7 7 7 7 7 7 7 7 7 7 7 7 7 7 7 7 7 7 7 7 7 7 7 7 w ` $ @ = . X X @ . X.9.7.7.7.9.9.7.7.9.q.9.9.#.7 7 7 7 7 7 7 7 7 7 7 7 7 7 7 ",
"7 7 7 7 7 7 7 7 7 7 7 7 7 7 7 7 7 7 7 7 7 7 7 7 9 _ G X ; @ = $ ; D o.0.0.7.7.7.7.7.q.e.9.7.e.7.7.B 7 7 7 7 7 7 7 7 7 7 7 7 7 7 ",
"7 7 7 7 7 7 7 7 7 7 7 7 7 7 7 7 7 7 7 7 7 7 7 7 b : X $ @ X X X X  .w.7.9.9.7.7.7.7.7.7.7.9.7.e.h.8.j 7 7 7 7 7 7 7 7 7 7 7 7 7 ",
"7 7 7 7 7 7 7 7 7 7 7 7 7 7 7 7 7 7 7 7 7 7 7 l ] & & $ = ; & F J 7.9.e.9.9.7.7.7.7.7.7.7.7.9.9.9.7.i.q 7 7 7 7 7 7 7 7 7 7 7 7 ",
"7 7 7 7 7 7 7 7 7 7 7 7 7 7 7 7 7 7 7 7 7 7 0 ' $ + $ X o X - A ,.6.9.9.9.9.7.7.7.7.7.7.7.7.7.9.9.7.7.&.7 7 7 7 7 7 7 7 7 7 7 7 ",
"7 7 7 7 7 7 7 7 7 7 7 7 7 7 7 7 7 7 7 7 7 7 ) > @ ; $ * = ; # X.q.7.e.9.9.7.7.7.7.7.7.7.7.9.7.7.7.7.9.7.@.7 7 7 7 7 7 7 7 7 7 7 ",
"7 7 7 7 7 7 7 7 7 7 7 7 7 7 7 7 7 7 7 7 7 z G % = * ; $ ; & | 7.7.7.7.9.7.7.7.7.7.7.7.7.7.7.7.9.7.q.9.8.d.j 7 7 7 7 7 7 7 7 7 7 ",
"7 7 7 7 7 7 7 7 7 7 7 7 7 7 7 7 7 7 7 7 0 Z X - X . $ @ X A 5.9.7.q.7.7.7.7.7.7.7.7.7.7.7.7.7.7.q.7.7.7.7.4.q 7 7 7 7 7 7 7 7 7 ",
"7 7 7 7 7 7 7 7 7 7 7 7 7 7 7 7 7 7 7 7 / ; & & ; F $ H S ,.e.9.7.7.7.7.7.7.7.7.7.7.7.7.7.7.7.7.q.7.7.q.e.q.&.7 7 7 7 7 7 7 7 7 ",
"7 7 7 7 7 7 7 7 7 7 7 7 7 7 7 7 7 7 7 z # @ $ X @ X $ # =.7.7.9.7.7.7.7.7.7.7.7.7.7.7.7.7.7.7.7.q.7.7.9.9.q.9.#.7 7 7 7 7 7 7 7 ",
"7 7 7 7 7 7 7 7 7 7 7 7 7 7 7 7 7 7 k ] % F @ = * X & | 7.9.7.7.9.9.9.9.9.9.7.q.q.7.7.7.7.q.9.7.q.q.q.7.q.7.9.w.V 7 7 7 7 7 7 7 ",
"7 7 7 7 7 7 7 7 7 7 7 7 7 7 7 7 7 7 r.....} } } { J | 6.e.e.w.9.7.7.7.7.9.9.7.q.q.9.7.7.7.9.9.7.7.7.9.9.7.7.q.6.d.v 7 7 7 7 7 7 ",
"7 7 7 7 7 7 7 7 7 7 7 7 7 7 7 7 7 7 y.Z.A.V.V.A.A.n.8.w.9.9.9.g.g.h.j.d.s.7.7.q.7.9.7.7.7.7.9.9.7.7.7.q.9.9.e.e.7.1.7 7 7 7 7 7 ",
"7 7 7 7 7 7 7 7 7 7 7 7 7 7 7 7 7 7 m.A.$XrX%X%XH.A.4.9.7.0.d.+X9X9XtX9X@XOXA.s.9.7.7.9.9.9.n.D.D.D.A.B.n.g.9.9.9.i.7 7 7 7 7 7 ",
"7 7 7 7 7 7 7 7 7 7 7 7 7 7 7 7 7 7 M.D.tX).4X:XOXV.8.9.q.q.g.9XP.Y.}.~.Q._.#Xs.9.q.e.9.9.d.OX;X}.-X7X;X>XrXl.q.7.4.7 7 7 7 7 7 ",
"7 7 7 7 7 7 7 7 7 7 7 7 7 7 7 7 7 7 M.A.eX~.}.<X$XV.8.e.q.7.g.9XU.W.{.(.!.^.#X6.e.e.9.7.7.7. X/.U.I.1XU.L.4Xc.q.q.w.7 7 7 7 7 7 ",
"7 7 7 7 7 7 7 7 7 7 7 7 7 7 7 7 7 7 N.D.tX).[.<X$XB.5.9.9.q.g.9XI.P.{./.W.^.%Xw.9.9.9.7.q.9. X'.W.W.6XT.T.4Xn.9.e.8.q 7 7 7 7 7 ",
"7 7 7 7 7 7 7 7 7 7 7 7 7 7 7 7 7 7 Z.A.tX5X5X7XoXB.8.9.9.9.h.#X3X3XyX4X|.<X%X8.9.7.7.q.q.9.XX4X1X<X7X}.}.qXn.9.q.w.d 7 7 7 7 7 ",
"7 7 7 7 7 7 7 7 7 7 7 7 7 7 7 7 7 9 Z.D.uX)._.;XoXn.8.9.9.7.s.%XQ.T.1X~.^.~.rXs.7.7.7.q.q.9. X_.(./.7X'./.,Xn.9.7.0.v 7 7 7 7 7 ",
"7 7 7 7 7 7 7 7 7 7 7 7 7 7 7 7 7 0 S.D.eX).[.1XoXB.5.9.9.7.d.#XY.W.3X^.!.Q.#Xs.e.7.7.q.q.9.+X'.!.R.6XT.T.:Xn.7.7.0.m 7 7 7 7 7 ",
"7 7 7 7 7 7 7 7 7 7 7 7 7 7 7 7 7 q S.D.eX).[.;X$Xn.5.9.9.9.d.%X~.P.3X^.P.`.#X8.9.7.7.7.7.7. X].U.P.6XU.W.4Xv.7.9.q.B 7 7 7 7 7 ",
"7 7 7 7 7 7 7 7 7 7 7 7 7 7 7 7 7 e D.D.&XtXuXwX+Xn.6.7.7.7.9.K.%XrXtXqXqXqXK.9.9.7.7.7.7.8.G.8X3X3XyX<X=XqXc.8.9.q.@.7 7 7 7 7 ",
"7 7 7 7 7 7 7 7 7 7 7 7 7 7 7 7 7 e D.V.D.D.H.H.D.b.5.7.9.7.9.d.d.d.f.z.z.v.e.9.9.9.7.7.7.9.g.x.B.A.B.A.D.G.j.9.7.e.@.7 7 7 7 7 ",
"7 7 7 7 7 7 7 7 7 7 7 7 7 7 7 7 7 x S.A.A.A.V.A.V.c.9.7.9.9.7.7.7.7.7.7.7.7.7.q.7.9.7.7.7.7.7.9.9.9.e.7.9.9.9.9.9.7.#.7 7 7 7 7 ",
"7 7 7 7 7 7 7 7 7 7 7 7 7 7 7 7 7 c S.A.A.A.V.A.A.l.6.7.7.7.7.7.9.7.7.7.7.7.7.7.7.7.7.7.7.7.7.9.9.e.9.9.9.9.9.7.7.7.$.7 7 7 7 7 ",
"7 7 7 7 7 7 7 7 7 7 7 7 7 7 7 7 7 c D.A.A.A.A.A.A.l.6.7.7.7.7.7.9.7.9.9.7.7.7.9.7.7.7.7.7.7.7.9.9.9.9.9.9.9.9.7.7.9.&.7 7 7 7 7 ",
"7 7 7 7 7 7 7 7 7 7 7 7 7 7 7 7 7 c D.A.A.A.A.A.A.f.6.7.7.7.7.7.7.7.7.7.7.7.7.7.7.7.7.7.7.7.7.7.7.7.7.7.7.7.7.9.7.8.&.7 7 7 7 7 ",
"7 7 7 7 7 7 7 7 7 7 7 7 7 7 7 7 7 c D.A.A.A.A.D.A.f.9.7.9.7.7.7.9.9.7.7.7.9.7.7.7.7.7.7.7.7.7.7.9.7.7.7.7.7.7.9.7.8.<.7 7 7 7 7 ",
"7 7 7 7 7 7 7 7 7 7 7 7 7 7 7 7 7 c D.A.A.A.A.A.A.f.9.7.9.7.7.7.7.7.7.7.7.7.7.7.7.7.7.7.7.7.7.7.9.9.7.7.7.7.7.9.7.8.1.7 7 7 7 7 ",
"7 7 7 7 7 7 7 7 7 7 7 7 7 7 7 7 7 c D.A.A.A.A.A.A.f.7.7.7.7.9.7.e.9.9.9.9.7.7.q.q.9.9.9.q.7.9.7.9.7.7.7.7.7.9.7.7.w.1.7 7 7 7 7 ",
"7 7 7 7 7 7 7 7 7 7 7 7 7 7 7 7 7 c D.A.A.A.A.A.A.f.7.q.7.9.7.9.d.g.d.d.d.d.8.7.9.7.7.9.q.9.9.9.7.9.9.9.9.9.9.7.7.8.<.7 7 7 7 7 ",
"7 7 7 7 7 7 7 7 7 7 7 7 7 7 7 7 7 c D.A.A.A.D.A.V.f.9.q.9.7.9.D.rX9XrX%X%X%XXXg.9.9.7.9.q.d.B.b.n.z.z.g.d.8.7.7.7.9.:.7 7 7 7 7 ",
"7 7 7 7 7 7 7 7 7 7 7 7 7 7 7 7 7 c D.D.A.C.A.V.V.l.9.7.9.9.7..X].Y._.{.Y.^.qXk.7.7.7.9.7.n.wX:X:XwXqXqXrXV.9.q.9.9.&.7 7 7 7 7 ",
"7 7 7 7 7 7 7 7 7 7 7 7 7 7 7 7 7 c D.A.>.;.>.4.A.f.9.7.9.e.9.J.].W._._.W.U.,Xg.9.9.7.7.7.v.>XL.L.3X^.I.<XG.9.q.9.7.%.7 7 7 7 7 ",
"7 7 7 7 7 7 7 7 7 7 7 7 7 7 7 7 7 c D.A.;.I L ! n.f.9.7.9.9.9.H._.Q./.}.W.U.7Xz.9.9.7.9.7.x.5XW.W.1XY.W.].G.7.q.9.7.%.7 7 7 7 7 ",
"7 7 7 7 7 7 7 7 7 7 7 7 7 7 7 7 7 c D.V.;.P P ! n.f.9.7.9.7.9.G.7X6X4X7X1X1XeXl.9.7.9.9.7.b.uX}.}.7X{.[.3XS.e.0.9.7.%.7 7 7 7 7 ",
"7 7 7 7 7 7 7 7 7 7 7 7 7 7 7 7 7 c D.V.*.I P R b.f.9.7.9.9.9.G.).U./.-XI.^.qXk.9.7.9.9.q.B.5X(.`.3X_./.;XG.9.6.7.7.#.7 7 7 7 7 ",
"7 7 7 7 7 7 7 7 7 7 7 7 7 7 7 7 7 x S.V.*.P P ! B.f.9.9.7.7.9.G._.E.`.1XW.E.,Xj.7.7.9.9.7.x.4X!.Q.3X^.W.].XX9.7.7.7.#.7 7 7 7 7 ",
"7 7 7 7 7 7 7 7 7 7 7 7 7 7 7 7 7 x F.V.*.P P R V.f.9.9.7.e.9.G.*X`./.3XY.I.qXf.e.7.9.9.7.B.-XW.U.6XI.W._..X9.9.q.9.@.7 7 7 7 7 ",
"7 7 7 7 7 7 7 7 7 7 7 7 7 7 7 7 7 x F.C.W P P Q V.f.9.9.7.7.7.n.OXrX%X%X0X%XoXk.w.7.7.9.9.A.uX<X[.7X_.'.-X X6.7.q.9.@.7 7 7 7 7 ",
"7 7 7 7 7 7 7 7 7 7 7 7 7 7 7 7 7 e F.V.E P L E V.f.9.9.7.q.7.9.h.d.d.s.d.9.d.7.7.9.9.9.9.j.b.Z.S.H. X XOXB.7.9.q.9.@.7 7 7 7 7 ",
"7 7 7 7 7 7 7 7 7 7 7 7 7 7 7 7 7 e D.V.W P P E V.a.9.9.7.9.q.9.9.q.q.9.9.7.9.9.9.9.7.7.7.7.7.7.8.9.9.9.9.9.9.9.q.e.V 7 7 7 7 7 ",
"7 7 7 7 7 7 7 7 7 7 7 7 7 7 7 7 7 e F.C.E P P E C.a.e.9.9.9.7.7.7.7.7.7.7.9.9.9.9.7.7.7.7.7.7.q.7.7.7.7.7.e.9.9.7.e.B 7 7 7 7 7 ",
"7 7 7 7 7 7 7 7 7 7 7 7 7 7 7 7 7 e S.V.W P P ~ C.s.7.7.7.7.7.7.7.7.7.7.7.9.9.9.7.7.9.9.9.7.7.7.7.7.7.7.7.7.7.9.7.7.m 7 7 7 7 7 ",
"7 7 7 7 7 7 7 7 7 7 7 7 7 7 7 7 7 e F.B.~ P I ~ V.f.9.9.9.9.9.9.9.9.9.7.7.9.9.7.7.9.7.7.7.7.q.q.7.7.7.7.7.7.7.9.7.e.m 7 7 7 7 7 ",
"7 7 7 7 7 7 7 7 7 7 7 7 7 7 7 7 7 q S.n.~ P I ^ A.f.9.7.7.9.9.9.7.7.7.7.7.7.7.7.9.7.7.7.7.9.e.9.9.9.7.7.7.q.q.w.q.9.m 7 7 7 7 7 ",
"7 7 7 7 7 7 7 7 7 7 7 7 7 7 7 7 7 0 F.C.;.Y Y ;.D.a.w.q.q.e.e.e.e.e.w.e.e.e.7.7.9.9.e.q.q.7.9.9.9.7.7.7.9.9.9.9.9.e.j 7 7 7 7 7 ",
"7 7 7 7 7 7 7 7 7 7 7 7 7 7 7 7 7 7 B n p i i u j u h h u h h u h h n N +.+.$.$.&.<.2.2.4.3.6.6.8.8.8.w.e.w.e.e.e.w.g 7 7 7 7 7 ",
"7 7 7 7 7 7 7 7 7 7 7 7 7 7 7 7 7 7 7 7 7 7 7 7 7 7 7 7 7 7 7 7 7 7 7 7 7 7 7 7 7 7 7 7 7 7 7 7 8 8 a a a f f f g g 7 7 7 7 7 7 ",
"7 7 7 7 7 7 7 7 7 7 7 7 7 7 7 7 7 7 7 7 7 7 7 7 7 7 7 7 7 7 7 7 7 7 7 7 7 7 7 7 7 7 7 7 7 7 7 7 7 7 7 7 7 7 7 7 7 7 7 7 7 7 7 7 "
};
